<?xml version="1.0" encoding="utf-8"?>
<svg version="1.1" xmlns="http://www.w3.org/2000/svg" preserveAspectRatio="none" viewBox="0 0 225 380" width="100%" height="100%">
<defs>
<mask id="mask" maskUnits="objectBoundingBox" maskContentUnits="objectBoundingBox" x="0" y="0" width="100%" height="100%">
<path opacity="0.7" fill="#FFFFFF" d="M0.24302222222222222,1c0,0,0.03367111111111111-0.28466315789473684,0-0.3870026315789474c0,0.005318421052631579-0.1391688888888889-0.061136842105263156-0.12121333333333333-0.15417368421052632c-0.0022444444444444443,0.0013289473684210526-0.01796-0.07442894736842105-0.04489333333333334-0.11961842105263157c-0.024693333333333334-0.01595-0.04264888888888889-0.022594736842105265-0.04264888888888889-0.022594736842105265L0.023675555555555554,0.3105263157894737c0,0,0.07876-0.06315789473684211,0.11715555555555555-0.07631578947368421c-0.01937777777777778-0.019297368421052633-0.010488888888888888-0.015789473684210527-0.010488888888888888-0.015789473684210527l0.16444444444444445-0.07456052631578947l-0.017777777777777778-0.015789473684210527l0.16740888888888888-0.0666657894736842L0.46071111111111107,0.07105263157894737l0.14814666666666665-0.05263157894736842c0,0,0.12,0.07192894736842105,0.14518666666666669,0.11315789473684211l0.02074222222222222-0.007894736842105263l0.20295999999999997,0.18771842105263156c0,0,0.016293333333333333,0.01666578947368421-0.008888888888888889,0.03771842105263158S0.6962666666666667,0.5868421052631579,0.6962666666666667,0.5868421052631579l0.14666666666666667,0.4131578947368421H0.24302222222222222z"/>
<path fill="#FFFFFF" d="M0.9912088888888888,0.3067894736842105l-0.2117288888888889-0.1958421052631579l-0.01849333333333333,0.007039473684210526C0.724928888888889,0.07515263157894737,0.6245333333333334,0.014710526315789473,0.6199244444444445,0.01195l-0.008591111111111112-0.00515l-0.14821333333333334,0.05265526315789474l-0.016764444444444443-0.009923684210526315l-0.1908888888888889,0.0760157894736842l0.01828888888888889,0.016244736842105263L0.12487555555555556,0.20929736842105265c-0.0041466666666666666,0.0006657894736842105-0.007751111111111111,0.002281578947368421-0.009915555555555554,0.004539473684210526c-0.004204444444444444,0.004376315789473684-0.002524444444444444,0.008989473684210526,0.005355555555555556,0.01767105263157895c-0.041191111111111116,0.019476315789473685-0.10170666666666667,0.06757631578947368-0.10915111111111112,0.07354473684210526l-0.008075555555555555,0.006476315789473684l0.021542222222222223,0.012368421052631579l0.001351111111111111,0.0005078947368421053c0.00015999999999999999,0.00005789473684210526,0.015746666666666666,0.005981578947368421,0.03731111111111111,0.019644736842105263c0.017795555555555554,0.03073421052631579,0.030582222222222222,0.07522105263157895,0.03750666666666667,0.09933684210526315c0.0015155555555555556,0.005278947368421052,0.0027555555555555554,0.009584210526315789,0.003702222222222222,0.012568421052631578c0.0003688888888888889,0.001163157894736842,0.0008044444444444444,0.0025236842105263156,0.0014711111111111112,0.003910526315789474c-0.011386666666666666,0.06704210526315789,0.05464,0.11897105263157895,0.08379555555555555,0.13831578947368423c0.008186666666666667,0.005431578947368421,0.025293333333333334,0.016210526315789474,0.039475555555555555,0.0214c0.030382222222222224,0.10389736842105264-0.0014133333333333333,0.3769868421052631-0.0017466666666666668,0.3797763157894737l-0.0011644444444444445,0.00985263157894737h0.031235555555555555l0.002977777777777778-0.026757894736842102l0,0c0.006848888888888889-0.06494473684210526,0.026853333333333333-0.28273157894736844-0.002257777777777778-0.3712157894736842c0,0-0.13681777777777776-0.06957368421052632-0.12102666666666667-0.1513684210526316l-0.00584888888888889-0.019760526315789475c-0.007231111111111111-0.025171052631578945-0.020648888888888887-0.07178947368421053-0.03983111111111111-0.10396842105263158l-0.0010577777777777777-0.0017710526315789475l-0.002142222222222222-0.001386842105263158c-0.02153333333333333-0.013910526315789472-0.03849333333333333-0.021228947368421052-0.04399555555555555-0.02345c0.026093333333333336-0.02028157894736842,0.07819111111111111-0.05842631578947369,0.10423555555555555-0.06735263157894737l0.013622222222222221-0.004668421052631579l-0.008044444444444444-0.008010526315789473c-0.003111111111111111-0.0030973684210526316-0.005315555555555555-0.0054368421052631575-0.006871111111111112-0.0071842105263157895l0.16848000000000002-0.0763921052631579l-0.017266666666666666-0.015334210526315789l0.14392444444444447-0.057315789473684216l0.015831111111111112,0.009373684210526315l0.14795999999999998-0.05256578947368421c0.02743111111111111,0.017031578947368422,0.11318222222222223,0.07192368421052632,0.13316,0.10462631578947369l0.006631111111111111,0.010857894736842106l0.024035555555555557-0.00915l0.1942088888888889,0.17962368421052632c0.001262222222222222,0.001526315789473684,0.009622222222222223,0.012910526315789473-0.008133333333333334,0.027752631578947366c-0.024991111111111113,0.020894736842105265-0.26268,0.22903421052631578-0.2727822222222222,0.23788421052631578l-0.003693333333333333,0.0032342105263157895L0.823768888888889,0.9907894736842106l0.007546666666666667,0.018421052631578946h0.030786666666666664l-0.14925333333333335-0.42044473684210526c0.030955555555555556-0.027102631578947368,0.24558666666666665-0.2149921052631579,0.2687066666666667-0.23432105263157896C1.0121511111111112,0.32886315789473686,0.99208,0.30767894736842105,0.9912088888888888,0.3067894736842105z"/>
<path fill="#FFFFFF" d="M0.2962666666666667,0.13070263157894738L0.4384888888888889,0.08421052631578947l0.11555555555555555,0.08859736842105263l-0.09777777777777778,0.021052631578947368c0,0-0.03259111111111111,0.001755263157894737-0.03111111111111111,0.042105263157894736C0.43107999999999996,0.25,0.43552444444444444,0.26052631578947366,0.43552444444444444,0.26052631578947366l0.011853333333333332,0.011402631578947369l0.014813333333333335-0.004386842105263158c0,0-0.023706666666666664-0.06315789473684211,0.051111111111111114-0.06842105263157895c0.13704-0.02894736842105263,0.2688888888888889-0.05789473684210526,0.2688888888888889-0.05789473684210526l-0.034431111111111114-0.01831578947368421L0.5807111111111111,0.17105263157894737l-0.09629777777777779-0.09912368421052632L0.4518222222222222,0.06578947368421052C0.4518222222222222,0.06578947368421052,0.30484,0.11432631578947369,0.2962666666666667,0.13070263157894738z"/>
<path fill="#FFFFFF" d="M0.2962666666666667,0.12040000000000001c0,0,0.1688933333333333,0.17960263157894735,0.23407555555555556,0.21732105263157894C0.5095999999999999,0.34210526315789475,0.4844133333333333,0.34210526315789475,0.4844133333333333,0.34210526315789475L0.28589777777777775,0.15526315789473685l-0.008888888888888889-0.027192105263157896L0.2962666666666667,0.12040000000000001z"/>
<path fill="#FFFFFF" d="M0.15078666666666665,0.20915263157894734c0,0,0.07436888888888889,0.06803947368421052,0.2077022222222222,0.16365526315789475c-0.00148-0.0008763157894736842-0.03111111111111111,0.014913157894736842-0.03111111111111111,0.014913157894736842L0.1323511111111111,0.23762105263157896l0.012804444444444443-0.02847105263157895H0.15078666666666665z"/>
<path fill="#FFFFFF" d="M0.04293333333333334,0.3061394736842105c0,0,0.15164,0.07631578947368421,0.2024888888888889,0.11754473684210527c0.0019555555555555554,0,0.09529333333333333-0.07894736842105263,0.3026977777777778-0.08596578947368422c0.04888888888888889-0.005263157894736842,0.07703555555555555-0.014913157894736842,0.07703555555555555-0.014913157894736842s0.05925777777777778-0.012281578947368421,0.1348133333333333-0.005263157894736842c-0.00296,0-0.05333333333333334,0.009649999999999999-0.05333333333333334,0.009649999999999999l-0.06814666666666666,0.010526315789473684c0,0-0.17037333333333335,0.010526315789473684-0.29629777777777777,0.058771052631578946c-0.06666666666666667,0.02894736842105263-0.09036888888888889,0.04912368421052632-0.09036888888888889,0.04912368421052632L0.09478666666666667,0.35526315789473684L0.04293333333333334,0.3061394736842105z"/>
<path fill="#FFFFFF" d="M0.6058977777777778,0.3359657894736842l-0.26666666666666666,0.23333421052631578L0.3866355555555555,0.5763157894736842l0.0029644444444444445,0.007894736842105263c0,0,0.02963111111111111,0.19386052631578948,0.011853333333333332,0.39122894736842107c-0.00148-0.0008763157894736842,0.023702222222222222-0.28508684210526314,0.008888888888888889-0.4026315789473684c0.09481333333333333-0.0070157894736842105,0.09481333333333333-0.0070157894736842105,0.09481333333333333-0.0070157894736842105l-0.11555555555555555-0.017544736842105262c0,0,0.19851555555555553-0.1859684210526316,0.2562933333333333-0.21228157894736843C0.6384888888888889,0.33771842105263156,0.6058977777777778,0.3359657894736842,0.6058977777777778,0.3359657894736842z"/>
<path fill="#FFFFFF" d="M0.8458933333333333,0.3938605263157895l-0.035555555555555556-0.006139473684210527l-0.034071111111111115-0.011842105263157895l-0.016297777777777776-0.006578947368421052c0,0-0.04296-0.01754736842105263-0.04592444444444445-0.02719473684210526c0.00148,0.009649999999999999,0,0.014036842105263157,0,0.014036842105263157L0.6533022222222222,0.34210526315789475c0,0,0.03171555555555556,0.02181578947368421,0.0725911111111111,0.025876315789473685c0.017777777777777778,0.003947368421052632,0.03852,0.023244736842105262,0.05629777777777778,0.03465C0.8073777777777777,0.4035105263157895,0.8444088888888889,0.4052631578947368,0.8458933333333333,0.3938605263157895z"/>
<path fill="#FFFFFF" d="M0.6962666666666667,0.24473684210526317c0,0-0.05184888888888889,0.040350000000000004-0.07555555555555556,0.04736842105263158c0.00296,0.001755263157894737-0.008888888888888889,0-0.008888888888888889,0s-0.11703555555555555-0.010092105263157895-0.15852-0.03245526315789474c-0.02074222222222222,0.01403421052631579,0,0.022807894736842103,0,0.022807894736842103l0.010702222222222222,0.003376315789473684c0,0,0.15374222222222222,0.029544736842105263,0.18929777777777776,0.032821052631578945c0.02666666666666667,0.0032763157894736845,0.042964444444444444,0,0.042964444444444444,0l-0.017777777777777778-0.012513157894736842L0.6677466666666666,0.3026315789473684l0.015555555555555555-0.004197368421052632l-0.013333333333333334-0.01601052631578947l0.005555555555555556-0.006765789473684211C0.6755244444444444,0.2756578947368421,0.6936755555555556,0.2506605263157895,0.6962666666666667,0.24473684210526317z"/>
</mask>
</defs>
<path opacity="0.7" fill="#FFFFFF" d="M54.68,380c0,0,7.576-108.172,0-147.061c0,2.021-31.313-23.232-27.273-58.586c-0.505,0.505-4.041-28.283-10.101-45.455c-5.556-6.061-9.596-8.586-9.596-8.586L5.327,118c0,0,17.721-24,26.36-29c-4.36-7.333-2.36-6-2.36-6l37-28.333l-4-6l37.667-25.333L103.66,27l33.333-20c0,0,27,27.333,32.667,43l4.667-3l45.666,71.333c0,0,3.666,6.333-2,14.333S156.66,223,156.66,223l33,157H54.68z"/>
<path fill="#FFFFFF" d="M223.022,116.58l-47.639-74.42l-4.161,2.675C163.109,28.558,140.52,5.59,139.483,4.541l-1.933-1.957l-33.348,20.009l-3.772-3.771l-42.95,28.886l4.115,6.173L28.097,79.533c-0.933,0.253-1.744,0.867-2.231,1.725c-0.946,1.663-0.568,3.416,1.205,6.715c-9.268,7.401-22.884,25.679-24.559,27.947l-1.817,2.461l4.847,4.7l0.304,0.193c0.036,0.022,3.543,2.273,8.395,7.465c4.004,11.679,6.881,28.584,8.439,37.748c0.341,2.006,0.62,3.642,0.833,4.776c0.083,0.442,0.181,0.959,0.331,1.486c-2.562,25.476,12.294,45.209,18.854,52.56c1.842,2.064,5.691,6.16,8.882,8.132c6.836,39.481-0.318,143.255-0.393,144.315l-0.262,3.744h7.028l0.67-10.168l0,0c1.541-24.679,6.042-107.438-0.508-141.062c0,0-30.784-26.438-27.231-57.52l-1.316-7.509c-1.627-9.565-4.646-27.28-8.962-39.508l-0.238-0.673l-0.482-0.527c-4.845-5.286-8.661-8.067-9.899-8.911c5.871-7.707,17.593-22.202,23.453-25.594l3.065-1.774l-1.81-3.044c-0.7-1.177-1.196-2.066-1.546-2.73l37.908-29.029l-3.885-5.827l32.383-21.78l3.562,3.562l33.291-19.975c6.172,6.472,25.466,27.331,29.961,39.758l1.492,4.126l5.408-3.477l43.697,68.257c0.284,0.58,2.165,4.906-1.83,10.546c-5.623,7.94-59.103,87.033-61.376,90.396l-0.831,1.229L185.348,376.5l1.698,7h6.927l-33.582-159.769c6.965-10.299,55.257-81.697,60.459-89.042C227.734,124.968,223.218,116.918,223.022,116.58z"/>
<path fill="#FFFFFF" d="M66.66,49.667L98.66,32l26,33.667l-22,8c0,0-7.333,0.667-7,16C96.993,95,97.993,99,97.993,99l2.667,4.333l3.333-1.667c0,0-5.334-24,11.5-26c30.834-11,60.5-22,60.5-22l-7.747-6.96L130.66,65l-21.667-37.667L101.66,25C101.66,25,68.589,43.444,66.66,49.667z"/>
<path fill="#FFFFFF" d="M66.66,45.752c0,0,38.001,68.249,52.667,82.582C114.66,130,108.993,130,108.993,130L64.327,59l-2-10.333L66.66,45.752z"/>
<path fill="#FFFFFF" d="M33.927,79.478c0,0,16.733,25.855,46.733,62.189c-0.333-0.333-7,5.667-7,5.667L29.779,90.296l2.881-10.819H33.927z"/>
<path fill="#FFFFFF" d="M9.66,116.333c0,0,34.119,29,45.56,44.667c0.44,0,21.441-30,68.107-32.667c11-2,17.333-5.667,17.333-5.667s13.333-4.667,30.333-2c-0.666,0-12,3.667-12,3.667l-15.333,4c0,0-38.334,4-66.667,22.333c-15,11-20.333,18.667-20.333,18.667L21.327,135L9.66,116.333z"/>
<path fill="#FFFFFF" d="M136.327,127.667l-60,88.667L86.993,219l0.667,3c0,0,6.667,73.667,2.667,148.667c-0.333-0.333,5.333-108.333,2-153c21.333-2.666,21.333-2.666,21.333-2.666l-26-6.667c0,0,44.666-70.668,57.666-80.667C143.66,128.333,136.327,127.667,136.327,127.667z"/>
<path fill="#FFFFFF" d="M190.326,149.667l-8-2.333l-7.666-4.5l-3.667-2.5c0,0-9.666-6.668-10.333-10.334c0.333,3.667,0,5.334,0,5.334L146.993,130c0,0,7.136,8.29,16.333,9.833c4,1.5,8.667,8.833,12.667,13.167C181.66,153.334,189.992,154,190.326,149.667z"/>
<path fill="#FFFFFF" d="M156.66,93c0,0-11.666,15.333-17,18c0.666,0.667-2,0-2,0s-26.333-3.835-35.667-12.333c-4.667,5.333,0,8.667,0,8.667l2.408,1.283c0,0,34.592,11.227,42.592,12.472c6,1.245,9.667,0,9.667,0l-4-4.755L150.243,115l3.5-1.595l-3-6.084l1.25-2.571C151.993,104.75,156.077,95.251,156.66,93z"/>
</svg>