<?xml version="1.0" encoding="utf-8"?>
<svg version="1.1" xmlns="http://www.w3.org/2000/svg" preserveAspectRatio="none" viewBox="0 0 223.114 304.875" width="100%" height="100%">
<defs>
<mask id="mask" maskUnits="objectBoundingBox" maskContentUnits="objectBoundingBox" x="0" y="0" width="100%" height="100%">
<path opacity="0.75" fill="#FFFFFF" d="M0.2582760382584688,1.003280032800328l-0.011205034197764372-0.2525625256252563c0,0-0.10756832829853796-0.06724067240672407-0.11653235565674946-0.17220172201722017c-0.017928054716422993-0.08692086920869209-0.040338123111951736-0.14104141041410415-0.040338123111951736-0.14596145961459614s0.011205034197764372-0.012300123001230012,0.011205034197764372-0.012300123001230012l-0.06947121202613911-0.04428044280442804c0,0,0.04257912995150461-0.04920049200492005,0.10868883171831441-0.07790077900779008c0.024651075235081615-0.013940139401394014,0.024651075235081615-0.013940139401394014,0.024651075235081615-0.013940139401394014c0.0003495970669702484,0.0001836818368183682-0.03663149779933128-0.004487084870848709,0.006723020518658623-0.03034030340303403c0.030253592333963804-0.018040180401804017,0.10308631461943221-0.05904059040590406,0.10308631461943221-0.05904059040590406l0.040338123111951736-0.017220172201722016l-0.014566544457093683-0.015580155801558016c0,0-0.011205034197764372-0.00984009840098401,0.001120503419776437-0.016400164001640016s0.10868883171831441-0.04592045920459205,0.10868883171831441-0.04592045920459205s0.01680755129664656-0.018040180401804017,0.034735606013069555,0c0.006723020518658623,0.00984009840098401,0.006723020518658623,0.00984009840098401,0.006723020518658623,0.00984009840098401l0.03361510259329312-0.011480114801148012l-0.012325537617540808-0.011480114801148012l0.10532732145898509-0.05002050020500205c0,0,0.01680755129664656-0.013940139401394014,0.03361510259329312,0c0.01680755129664656,0.014760147601476014,0.1176528590765259,0.12300123001230012,0.1176528590765259,0.12300123001230012l0.014566544457093683,0.012300123001230012l0.020169061555975868-0.005740057400574006c0,0,0.005602517098882186-0.004100041000410004,0.09412228726122072,0.1016810168101681c0.07731473596457417,0.08938089380893809,0.08403775648323278,0.0943009430094301,0.08403775648323278,0.0943009430094301s0.047119409808438734,0.035260352603526036,0.02470934141290999,0.05986059860598606c-0.02801258549441093,0.026240262402624025-0.18824457452244145,0.2033620336203362-0.18824457452244145,0.2033620336203362l-0.09306005001927266,0.09348093480934809l0.0784352393843506,0.2812628126281263L0.2582760382584688,1.003280032800328z"/>
<path fill="#FFFFFF" d="M0.2582760382584688,1l-0.011205034197764372-0.24928249282492826c0,0-0.08112892960549314-0.05225748257482575-0.11115393924182257-0.14215990159901598c-0.0003495970669702484-0.0012595325953259533-0.011707019729824216-0.0464419844198442-0.0219887591096928-0.09892250922509224c-0.00004930215047016323-0.0001869618696186962-0.02372778041718583-0.07708077080770807-0.02372778041718583-0.07708077080770807l0.15574997534892476,0.11316113161131611c0,0,0.029133088914187366-0.04428044280442804,0.17031651980601845-0.09266092660926609c0.09300178384144428-0.02788027880278803,0.26780031732656845-0.05740057400574006,0.3451150532911426-0.06724067240672407c0,0-0.09860430094032646-0.012300123001230012-0.3585610943284599,0.048380483804838045c-0.10196581119965578,0.035260352603526036-0.15462947192914833,0.08095448954489545-0.15462947192914833,0.08095448954489545l-0.20953413949819374-0.1391750717507175l-0.011205034197764372,0.011480114801148012l-0.005602517098882186,0.004920049200492005l0.04706114363061036,0.02952029520295203c0,0,0.020169061555975868,0.06314063140631407,0.02353057181530518,0.08774087740877409c0.006723020518658623,0.04264042640426404,0.014320033704742866,0.13847970479704796,0.08515825990300922,0.2050020500205002c0.05490466756904542,0.045100451004510045,0.04706114363061036,0.04264042640426404,0.04706114363061036,0.04264042640426404l0.002241006839552874,0.24272242722427223H0.2582760382584688z"/>
<path fill="#FFFFFF" d="M0.7647435839974184,1l-0.0784352393843506-0.2812628126281263l0.2745233378452271-0.3001230012300123c0,0,0.021034090196043277-0.016547765477654776-0.00428032306354599-0.04264042640426404s-0.19180777539733052-0.2099220992209922-0.19180777539733052-0.2099220992209922l-0.26161065643572345,0.07516851168511686c0,0-0.03942827433509327,0.004375563755637557-0.046899791138162554,0.03170807708077081c0-0.0010922509225092252,0,0.04482820828208282,0,0.04482820828208282s0.03137409575374024,0.021867978679786796,0.16135249244780694,0.041548175481754816c-0.0029895031239635344,0,0.07768674309993993-0.06560065600656007,0.07768674309993993-0.06560065600656007l-0.005974524234247962,0.014212382123821239c0,0-0.04462292818917683,0.05405822058220583,0.0030836254112247548,0.07841574415744157c0.0017435033211721362-0.00011480114801148012-0.0438161657269378,0.00382779827798278-0.0438161657269378,0.00382779827798278s-0.027994657439694506-0.011178351783517835-0.18187563308443216-0.03960311603116031c-0.0014925105551422144,0.0010922509225092252-0.038845612556809524-0.03280032800328003-0.038845612556809524-0.03280032800328003V0.2729249692496925c0,0-0.008964027358211496-0.03936039360393604,0.03436359887770377-0.043732677326773266c0.12101436933585522-0.026240262402624025,0.21513665659707593-0.05904059040590406,0.28236686178366216-0.09621320213202131c-0.0029850211102844288,0.004372283722837228,0.02838907464345581-0.00984009840098401,0.02838907464345581-0.00984009840098401l0.1777835545954086,0.2066420664206642l0.03436359887770377,0.03498810988109881c0.017000277884848106,0.019424354243542434,0.028384592629776707,0.03280032800328003-0.017497781403228843,0.07434850348503486c-0.04076839642514589,0.048108241082410824-0.2454485151088681,0.2777105371053711-0.2454485151088681,0.2777105371053711l0.08515825990300922,0.2831750717507175H0.7647435839974184z"/>
<path fill="#FFFFFF" d="M0.5996575741549163,0.41175235752357525l-0.19720860188065292,0.21104387043870437L0.3411932913219251,0.6879868798687987c0,0-0.017928054716422993,0.012437884378843788,0.010456537913353712,0.018997949979499794c0.028384592629776707-0.0021877818778187784,0.028384592629776707-0.0021877818778187784,0.028384592629776707-0.0021877818778187784l0.005974524234247962,0.005740057400574006l0.01680755129664656,0.24436244362443624c0,0,0.01680755129664656-0.15252152521525214,0.001120503419776437-0.25010250102501025c-0.0033615102593293113-0.0016400164001640015,0.09919144473228932-0.01066010660106601,0.09919144473228932-0.01066010660106601s-0.09919144473228932-0.009020090200902008-0.11151698234983012-0.02214022140221402c0.01680755129664656-0.022960229602296024,0.035461692229084685-0.04428044280442804,0.035461692229084685-0.04428044280442804s0.1655969594019201-0.19319065190651907,0.21353657771363518-0.22328823288232882c0.01316815618921269-0.014724067240672406,0-0.005494054940549406,0-0.005494054940549406L0.5996575741549163,0.41175235752357525z"/>
<path fill="#FFFFFF" d="M0.6464632430058177,0.4153341533415334c0,0,0.056652652903896664,0.03608036080360803,0.10259329311473059,0.048380483804838045c0.01568704787687012,0.007380073800738007,0.012325537617540808,0.011480114801148012,0.012325537617540808,0.011480114801148012l0.01680755129664656,0.016400164001640016c0,0,0.01904855813619943-0.0016400164001640015,0.03809711627239886,0c0.020169061555975868-0.006560065600656006,0.02801258549441093-0.012300123001230012,0.02801258549441093-0.012300123001230012l-0.024651075235081615-0.003280032800328003l-0.01568704787687012-0.004920049200492005l-0.008964027358211496-0.008200082000820008l-0.012325537617540808-0.005740057400574006c0,0-0.006723020518658623-0.008200082000820008-0.010084530777987934-0.008200082000820008s-0.01904855813619943-0.0016400164001640015-0.01904855813619943-0.0016400164001640015l-0.01568704787687012-0.007380073800738007c0,0-0.012773738985451383-0.00984009840098401-0.024314924209148686-0.02132021320213202c0.000784352393843506-0.0024600246002460025,0,0.00984009840098401,0,0.00984009840098401S0.6884283370832848,0.43504715047150466,0.6464632430058177,0.4153341533415334z"/>
<path fill="#FFFFFF" d="M0.7445745224414425,0.13297908979089793l-0.1266168864347374-0.1260090200902009l-0.006723020518658623-0.006560065600656006l-0.04369963337128105,0.01886018860188602l-0.10644782487876153,0.047422714227142275l-0.014566544457093683-0.012162361623616237l-0.1927265882015472,0.0910209102091021l0.021289564975752306,0.026240262402624025L0.16095359323036654,0.23780237802378024L0.11036958684797905,0.27101271012710126c0,0,0.017367803006534777,0.014966789667896678,0.01904855813619943,0.016400164001640016s-0.011213998225122581-0.0016465764657646576-0.12549638301496097,0.08856088560885608c0.03011016789623242,0.024042640426404263,0.017928054716422993,0.016400164001640016,0.017928054716422993,0.016400164001640016S0.08737237466048746,0.321820418204182,0.13697033803347167,0.2996965969659697c0.06864203949550454,0.0615170151701517,0.18629489857203044,0.17549815498154983,0.18629489857203044,0.17549815498154983l0.03697661285262242-0.021730217302173022l-0.19496759504110006-0.16933169331693318l-0.013446041037317245-0.013120131201312012l0.1309196195666789-0.07953423534235343c0,0,0.12645105192861048,0.153430094300943,0.19719963785329472,0.22581385813858137c0.025959823229380494,0.002958589585895859,0.041646871106250614-0.0019614596145961457,0.041646871106250614-0.0019614596145961457l0.003294280054142725-0.006760147601476014c0,0-0.13439318016798588-0.1260811808118081-0.20946690929300715-0.2310422304223042c-0.019138198409781544-0.02543009430094301-0.019138198409781544-0.02543009430094301-0.019138198409781544-0.02543009430094301l0.13079412318366396-0.06043132431324313c0,0,0.10460123524296996,0.09160147601476015,0.12925231047805158,0.12030176301763018c-0.001120503419776437,0,0.01904855813619943-0.005740057400574006,0.01904855813619943-0.005740057400574006s-0.0683820827021164-0.09091922919229192-0.09861774698136379-0.12130873308733088c0.022504190682789964-0.010689626896268963,0.1232688222164454-0.05462566625666257,0.1232688222164454-0.05462566625666257s0.08291725306345635,0.07343665436654366,0.12325537617540809,0.12427716277162773c0.020169061555975868-0.005740057400574006,0.021289564975752306-0.011480114801148012,0.021289564975752306-0.011480114801148012V0.13297908979089793z"/>
<path fill="#FFFFFF" d="M0.09297040974569054,0.4273587535875359c0.007314646324300581,0.0019155391553915537,0.034215692426293284,0.11488970889708898,0.04765276943625232,0.17001722017220172c0.024651075235081615,0.056580565805658053,0.03249459917351668,0.08938089380893809,0.11541185223697302,0.14760147601476015c-0.001120503419776437,0.07298072980729807,0.006723020518658623,0.25830258302583026,0.006723020518658623,0.25830258302583026l-0.024651075235081615-0.011480114801148012v-0.23452234522345222l-0.012325537617540808-0.013940139401394014c0,0-0.07395322570524485-0.048380483804838045-0.08851977016233853-0.10414104141041411s-0.05602517098882186-0.21730217302173022-0.05602517098882186-0.21730217302173022L0.09297040974569054,0.4273587535875359z"/>
<path fill="#FFFFFF" d="M0.00392176196921753,0.3759737597375974L0,0.379870438704387l0.00392176196921753,0.0026666666666666666l0.06662961535358605,0.04456908569085691l0.006203106931882356-0.011768757687576877l-0.03809711627239886-0.03936039360393604c0,0,0.08369264142994164-0.06756867568675687,0.10196581119965578-0.07790077900779008c-0.008892315139345805,0.004086920869208692-0.01568704787687012,0-0.01568704787687012,0S0.01960880984608765,0.3759737597375974,0.00392176196921753,0.3759737597375974z"/>
<path fill="#FFFFFF" d="M0.13165915182373136,0.27511275112751127c0,0-0.06343393960038367,0.05026978269782698-0.06573321261776491,0.051798277982779826s0.027985693412336293-0.006409184091840919,0.027985693412336293-0.006409184091840919l0.04671154656364011-0.0380090200902009z"/>
<polygon fill="#FFFFFF" points="0.12386493003576646,0.2826371463714637 0.1286293105766559,0.2867339073390734 0.12240379357637798,0.2912964329643296 0.133339906953396,0.2912964329643296 0.13530302894484433,0.2849528495284953"/>
</mask>
</defs>
<path opacity="0.75" fill="#FFFFFF" d="M57.625,305.875l-2.5-77c0,0-24-20.5-26-52.5c-4-26.5-9-43-9-44.5s2.5-3.75,2.5-3.75l-15.5-13.5c0,0,9.5-15,24.25-23.75c5.5-4.25,5.5-4.25,5.5-4.25c0.078,0.056-8.173-1.368,1.5-9.25c6.75-5.5,23-18,23-18l9-5.25l-3.25-4.75c0,0-2.5-3,0.25-5s24.25-14,24.25-14s3.75-5.5,7.75,0c1.5,3,1.5,3,1.5,3l7.5-3.5l-2.75-3.5l23.5-15.25c0,0,3.75-4.25,7.5,0c3.75,4.5,26.25,37.5,26.25,37.5l3.25,3.75l4.5-1.75c0,0,1.25-1.25,21,31c17.25,27.25,18.75,28.75,18.75,28.75s10.513,10.75,5.513,18.25c-6.25,8-42,62-42,62l-20.763,28.5l17.5,85.75L57.625,305.875z"/>
<path fill="#FFFFFF" d="M57.625,304.875l-2.5-76c0,0-18.101-15.932-24.8-43.341c-0.078-0.384-2.612-14.159-4.906-30.159c-0.011-0.057-5.294-23.5-5.294-23.5l34.75,34.5c0,0,6.5-13.5,38-28.25c20.75-8.5,59.75-17.5,77-20.5c0,0-22-3.75-80,14.75c-22.75,10.75-34.5,24.681-34.5,24.681l-46.75-42.431l-2.5,3.5l-1.25,1.5l10.5,9c0,0,4.5,19.25,5.25,26.75c1.5,13,3.195,42.219,19,62.5c12.25,13.75,10.5,13,10.5,13l0.5,74H57.625z"/>
<path fill="#FFFFFF" d="M170.625,304.875l-17.5-85.75l61.25-91.5c0,0,4.693-5.045-0.955-13s-42.795-64-42.795-64l-58.369,22.917c0,0-8.797,1.334-10.464,9.667c0-0.333,0,13.667,0,13.667s7,6.667,36,12.667c-0.667,0,17.333-20,17.333-20l-1.333,4.333c0,0-9.956,16.481,0.688,23.907c0.389-0.035-9.776,1.167-9.776,1.167s-6.246-3.408-40.579-12.074c-0.333,0.333-8.667-10-8.667-10V83.208c0,0-2-12,7.667-13.333c27-8,48-18,63-29.333c-0.666,1.333,6.334-3,6.334-3l39.666,63l7.667,10.667c3.793,5.922,6.333,10-3.904,22.667c-9.096,14.667-54.763,84.667-54.763,84.667l19,86.333H170.625z"/>
<path fill="#FFFFFF" d="M133.792,125.533l-44,64.342L76.125,209.75c0,0-4,3.792,2.333,5.792c6.333-0.667,6.333-0.667,6.333-0.667l1.333,1.75l3.75,74.5c0,0,3.75-46.5,0.25-76.25c-0.75-0.5,22.131-3.25,22.131-3.25s-22.131-2.75-24.881-6.75c3.75-7,7.912-13.5,7.912-13.5s36.947-58.899,47.643-68.075c2.938-4.489,0-1.675,0-1.675L133.792,125.533z"/>
<path fill="#FFFFFF" d="M144.235,126.625c0,0,12.64,11,22.89,14.75c3.5,2.25,2.75,3.5,2.75,3.5l3.75,5c0,0,4.25-0.5,8.5,0c4.5-2,6.25-3.75,6.25-3.75l-5.5-1l-3.5-1.5l-2-2.5l-2.75-1.75c0,0-1.5-2.5-2.25-2.5s-4.25-0.5-4.25-0.5l-3.5-2.25c0,0-2.85-3-5.425-6.5c0.175-0.75,0,3,0,3S153.598,132.635,144.235,126.625z"/>
<path fill="#FFFFFF" d="M166.125,40.542l-28.25-38.417l-1.5-2l-9.75,5.75l-23.75,14.458l-3.25-3.708l-43,27.75l4.75,8L35.911,72.5L24.625,82.625c0,0,3.875,4.563,4.25,5s-2.502-0.502-28,27c6.718,7.33,4,5,4,5S19.494,98.115,30.56,91.37c15.315,18.755,41.565,53.505,41.565,53.505l8.25-6.625l-43.5-51.625l-3-4l29.21-24.248c0,0,28.213,46.777,43.998,68.845c5.792,0.902,9.292-0.598,9.292-0.598l0.735-2.061c0,0-29.985-38.439-46.735-70.439c-4.27-7.753-4.27-7.753-4.27-7.753l29.182-18.424c0,0,23.338,27.927,28.838,36.677c-0.25,0,4.25-1.75,4.25-1.75s-15.257-27.719-22.003-36.984c5.021-3.259,27.503-16.654,27.503-16.654s18.5,22.389,27.5,37.889c4.5-1.75,4.75-3.5,4.75-3.5V40.542z"/>
<path fill="#FFFFFF" d="M20.743,130.291c1.632,0.584,7.634,35.027,10.632,51.834c5.5,17.25,7.25,27.25,25.75,45c-0.25,22.25,1.5,78.75,1.5,78.75l-5.5-3.5v-71.5l-2.75-4.25c0,0-16.5-14.75-19.75-31.75s-12.5-66.25-12.5-66.25L20.743,130.291z"/>
<path fill="#FFFFFF" d="M0.875,114.625L0,115.813l0.875,0.813l14.866,13.588l1.384-3.588l-8.5-12c0,0,18.673-20.6,22.75-23.75c-1.984,1.246-3.5,0-3.5,0S4.375,114.625,0.875,114.625z"/>
<path fill="#FFFFFF" d="M29.375,83.875c0,0-14.153,15.326-14.666,15.792s6.244-1.954,6.244-1.954l10.422-11.588"/>
<polygon fill="#FFFFFF" points="27.636,86.169 28.699,87.418 27.31,88.809 29.75,88.809 30.188,86.875 	"/>
</svg>