<?xml version="1.0" encoding="utf-8"?>
<svg version="1.1" xmlns="http://www.w3.org/2000/svg" preserveAspectRatio="none" viewBox="0 0 170 170" width="100%" height="100%">
<defs>
<mask id="mask" maskUnits="objectBoundingBox" maskContentUnits="objectBoundingBox" x="0" y="0" width="100%" height="100%">
<circle opacity="0.75" fill="#FFFFFF" cx="0.5058823529411764" cy="0.5107529411764706" r="0.47058823529411764"/>
<path fill="#FFFFFF" d="M0.5058823529411764,0.9822882352941177c-0.2611058823529412,0-0.47352941176470587-0.2124235294117647-0.47352941176470587-0.47352941176470587s0.2124235294117647-0.47352941176470587,0.47352941176470587-0.47352941176470587s0.47352941176470587,0.2124235294117647,0.47352941176470587,0.47352941176470587S0.7669882352941176,0.9822882352941177,0.5058823529411764,0.9822882352941177z M0.5058823529411764,0.06464117647058824c-0.24488823529411766,0-0.4441176470588235,0.19922941176470588-0.4441176470588235,0.4441176470588235s0.19922941176470588,0.4441176470588235,0.4441176470588235,0.4441176470588235s0.4441176470588235-0.19922941176470588,0.4441176470588235-0.4441176470588235S0.7507705882352941,0.06464117647058824,0.5058823529411764,0.06464117647058824z"/>
<path fill="#FFFFFF" d="M0.5169588235294117,0.4963941176470588c0.0076-0.0011058823529411764,0.009541176470588235-0.003341176470588235,0.009876470588235294-0.0052c0.0003294117647058824-0.0026058823529411766-0.0019-0.015247058823529412-0.0019-0.015247058823529412s0.0029705882352941177,0.01438235294117647,0.008676470588235294,0.014135294117647058c0.0057-0.0002470588235294118,0.014623529411764707-0.0019823529411764707,0.015364705882352942-0.00793529411764706c-0.002476470588235294-0.006941176470588235-0.0029647058823529414-0.01016470588235294-0.0029647058823529414-0.01016470588235294s0.003958823529411765,0.004711764705882353,0.0052058823529411765,0.007929411764705883c0.0002470588235294118-0.0004941176470588236,0.0052058823529411765,0.005952941176470588,0.011647058823529411,0c0.0032352941176470593-0.0019764705882352944,0.0032352941176470593-0.0019764705882352944,0.0032352941176470593-0.0019764705882352944s-0.0005058823529411764-0.005705882352941176,0.0014764705882352942-0.005705882352941176c0.0004941176470588236,0,0.002241176470588235,0.002976470588235294,0.0034705882352941177,0.0004941176470588236c0.0012470588235294117-0.002476470588235294,0.0017352941176470588-0.004458823529411765,0.0017352941176470588-0.004458823529411765s0.0062058823529411765-0.006694117647058823,0-0.017358823529411767c-0.0024705882352941176-0.005705882352941176-0.0024705882352941176-0.005705882352941176-0.0024705882352941176-0.005705882352941176l0.0009823529411764707-0.0012352941176470588l-0.0002470588235294118-0.007435294117647059l0.010417647058823528,0.0007411764705882353c0,0,0.023429411764705883,0.003723529411764706,0.02938235294117647-0.001111764705882353c-0.00037647058823529414,0,0.0104,0.0037176470588235295,0.012635294117647059-0.0022294117647058825c0-0.0007470588235294118,0.002976470588235294-0.0007470588235294118,0.004464705882352941-0.005958823529411764c0.0018588235294117648-0.0025941176470588236,0.0018588235294117648-0.0025941176470588236,0.0018588235294117648-0.0025941176470588236s0.0052058823529411765-0.006329411764705883,0-0.02082941176470588c-0.00037058823529411767-0.00037058823529411767,0.008923529411764705,0.0037176470588235295,0.010041176470588236-0.011529411764705882c0.0007352941176470588-0.01488235294117647-0.01301764705882353-0.021570588235294116-0.0119-0.028270588235294117c0.0003823529411764706-0.010411764705882353,0.0011764705882352942-0.021829411764705882,0.011923529411764706-0.044011764705882354c0.010023529411764705-0.03445294117647059,0.023411764705882354-0.11032941176470588-0.015270588235294117-0.14231176470588236c-0.038682352941176466-0.031988235294117644-0.07475882352941177-0.03384705882352941-0.11752352941176471-0.03347058823529412c-0.042770588235294116-0.00037647058823529414-0.07884705882352941,0.0014823529411764707-0.11752352941176471,0.03347058823529412c-0.0386764705882353,0.031982352941176476-0.02528823529411765,0.1078529411764706-0.015276470588235294,0.14231176470588236c0.010752941176470588,0.02218235294117647,0.011558823529411765,0.0336,0.011929411764705883,0.044011764705882354c0.0011176470588235294,0.006694117647058823-0.012641176470588236,0.013388235294117645-0.011894117647058822,0.028270588235294117c0.001111764705882353,0.015247058823529412,0.010411764705882353,0.011158823529411764,0.010041176470588236,0.011529411764705882c-0.0052058823529411765,0.014499999999999999,0,0.02082941176470588,0,0.02082941176470588s0,0,0.0018588235294117648,0.0025941176470588236c0.001488235294117647,0.005211764705882353,0.004464705882352941,0.005211764705882353,0.004464705882352941,0.005958823529411764c0.0022294117647058825,0.005947058823529411,0.013011764705882355,0.0022294117647058825,0.01264705882352941,0.0022294117647058825c0.005952941176470588,0.004835294117647058,0.029376470588235292,0.001111764705882353,0.029376470588235292,0.001111764705882353l0.010417647058823528-0.0007411764705882353l-0.0002470588235294118,0.007435294117647059l0.0009941176470588235,0.0012352941176470588c0,0,0,0-0.0024823529411764707,0.005705882352941176c-0.006200000000000001,0.01066470588235294,0,0.017358823529411767,0,0.017358823529411767s0.0004941176470588236,0.0019823529411764707,0.0017352941176470588,0.004458823529411765c0.0012411764705882353,0.0024823529411764707,0.002976470588235294-0.0004941176470588236,0.0034705882352941177-0.0004941176470588236c0.0019823529411764707,0,0.001488235294117647,0.005705882352941176,0.001488235294117647,0.005705882352941176s0,0,0.0032176470588235295,0.0019764705882352944c0.006452941176470588,0.005952941176470588,0.011411764705882352-0.0004941176470588236,0.011652941176470588,0c0.0012411764705882353-0.0032176470588235295,0.005211764705882353-0.007929411764705883,0.005211764705882353-0.007929411764705883s-0.0004941176470588236,0.0032235294117647063-0.002976470588235294,0.01016470588235294c0.0007411764705882353,0.005952941176470588,0.009670588235294117,0.007688235294117647,0.015376470588235294,0.00793529411764706c0.0057,0.0002470588235294118,0.008676470588235294-0.014135294117647058,0.008676470588235294-0.014135294117647058s-0.0022294117647058825,0.012641176470588236-0.0019058823529411765,0.015247058823529412c0.0003294117647058824,0.0018588235294117648,0.0022764705882352943,0.004094117647058824,0.009876470588235294,0.0052c0.00871764705882353,0.001123529411764706,0.007276470588235295-0.006688235294117647,0.007647058823529412-0.006688235294117647c0.00037647058823529414-0.014129411764705883,0.002235294117647059-0.017188235294117647,0.002235294117647059-0.017188235294117647s0.0018529411764705882,0.003058823529411765,0.0022294117647058825,0.017188235294117647C0.5096823529411765,0.48970588235294116,0.5082352941176471,0.49751764705882356,0.5169588235294117,0.4963941176470588z M0.5787941176470588,0.33932352941176475c0.019641176470588235,0.0014941176470588235,0.026470588235294117,0.019341176470588233,0.02498235294117647,0.034717647058823534c-0.004958823529411765,0.009911764705882353-0.007941176470588236,0.012394117647058825-0.02777058823529412,0.012394117647058825c-0.0238,0.002476470588235294-0.04661176470588235-0.019841176470588237-0.04661176470588235-0.019841176470588237C0.5348470588235295,0.3665941176470588,0.5576588235294118,0.3408176470588235,0.5787941176470588,0.33932352941176475z M0.4381470588235294,0.3864352941176471c-0.019841176470588237,0-0.022811764705882354-0.0024823529411764707-0.02777058823529412-0.012394117647058825c-0.001488235294117647-0.015376470588235294,0.0053411764705882355-0.03321764705882353,0.024988235294117648-0.034717647058823534c0.021129411764705883,0.0014941176470588235,0.043947058823529415,0.02727058823529412,0.0494,0.02727058823529412C0.48476470588235293,0.3665941176470588,0.46194705882352943,0.38891764705882353,0.4381470588235294,0.3864352941176471z M0.48774117647058823,0.41916470588235294c0-0.009923529411764706,0.019341176470588233-0.03967058823529412,0.019341176470588233-0.03967058823529412s0.019341176470588233,0.029752941176470586,0.019341176470588233,0.03967058823529412c0-0.0009941176470588235,0.004952941176470588,0.01983529411764706-0.019341176470588233,0.008929411764705882C0.4827764705882353,0.43899999999999995,0.48774117647058823,0.4181705882352941,0.48774117647058823,0.41916470588235294z"/>
<path fill="#FFFFFF" d="M0.845764705882353,0.47718235294117645c-0.0004941176470588236,0-0.017358823529411767-0.006441176470588235-0.030258823529411765-0.0019823529411764707c0,0-0.0024705882352941176,0.0032941176470588237-0.00841764705882353-0.0015823529411764707c-0.009429411764705882-0.0018941176470588235-0.03125294117647059-0.0015647058823529414-0.04612941176470588,0c0.001,0.0005882352941176471-0.016852941176470588-0.005864705882352941-0.02528235294117647,0.004058823529411764c0.0009823529411764707,0.0004941176470588236-0.004470588235294118,0.007929411764705883-0.01587058823529412-0.0009941176470588235c-0.008935294117647059-0.004464705882352941-0.02082941176470588-0.004958823529411765-0.026788235294117647,0.006941176470588235c-0.0009882352941176472,0-0.002464705882352941,0.011405882352941177-0.01734705882352941,0.0024823529411764707c0,0-0.016858823529411766-0.009429411764705882-0.02032941176470588,0.005452941176470588c0.0004941176470588236,0-0.010417647058823528,0.02727058823529412-0.02529411764705882,0.01338235294117647c-0.001-0.0009941176470588235-0.005947058823529411-0.006941176470588235-0.013388235294117645,0.0005c0,0-0.010417647058823528,0.003970588235294118-0.008935294117647059,0.012388235294117646c0-0.00048823529411764707-0.006435294117647059,0.0005-0.006435294117647059,0.0005s-0.007788235294117647,0.004252941176470588-0.022505882352941178-0.009923529411764706c-0.009235294117647059-0.009423529411764706-0.009235294117647059-0.009423529411764706-0.009235294117647059-0.009423529411764706s-0.012400000000000001-0.016858823529411766-0.03272352941176471,0c-0.018347058823529414,0.01338235294117647-0.016858823529411766,0.0119-0.016858823529411766,0.0119s-0.01586470588235294,0.008923529411764705-0.0034705882352941177,0.018841176470588233c0.015858823529411765,0.009423529411764706,0.05950588235294117,0.03719411764705883,0.07190588235294118,0.04462352941176471c0.0004941176470588236,0.0005058823529411764,0.029252941176470586,0.012400000000000001,0.05701764705882353,0c0.03174117647058824-0.018329411764705882,0.10513529411764706-0.05999411764705882,0.1423294117647059-0.04462352941176471c0.01734705882352941,0.008441176470588235,0.030247058823529415,0.022811764705882354,0.030247058823529415,0.022811764705882354l0.029752941176470586,0.03222941176470588c0,0,0.008429411764705883,0.008435294117647058,0,0.0119c-0.0064470588235294125,0.008923529411764705-0.003964705882352941,0.01884705882352941,0.0064470588235294125,0.02777058823529412c-0.0004941176470588236,0,0.003976470588235294,0.013394117647058824-0.005941176470588235,0.01884705882352941c-0.001,0-0.005464705882352942,0-0.005464705882352942,0s-0.024305882352941174-0.0009941176470588235-0.009923529411764706,0.024794117647058824c-0.00048823529411764707,0.0004941176470588236,0.011405882352941177,0.014876470588235293-0.010411764705882353,0.01288235294117647c-0.008441176470588235-0.003964705882352941-0.02231764705882353-0.007929411764705883-0.023305882352941176,0.004970588235294117c-0.002988235294117647,0.005452941176470588-0.008929411764705882,0.010905882352941177-0.010905882352941177,0.0024823529411764707c-0.006952941176470588-0.0129-0.0253-0.01835294117647059-0.028770588235294117-0.0009941176470588235c0.0005058823529411764,0-0.00793529411764706,0.01438235294117647-0.011894117647058822-0.003976470588235294c-0.003964705882352941-0.018288235294117647-0.014823529411764706-0.023758823529411763-0.0306-0.011011764705882353c0.00048823529411764707-0.0006588235294117648,0.0011-0.0047-0.001635294117647059-0.008329411764705882c0.0005058823529411764,0-0.004464705882352941-0.010905882352941177,0.0019941176470588237-0.01338235294117647c0.0009882352941176472-0.013876470588235294-0.001488235294117647-0.01734705882352941-0.006952941176470588-0.01587058823529412c0,0.0005058823529411764-0.006941176470588235-0.0009882352941176472-0.010911764705882353-0.0064470588235294125c0.001488235294117647-0.004458823529411765,0.003976470588235294-0.004458823529411765,0.003976470588235294-0.004458823529411765s0.010905882352941177-0.007588235294117647,0.003964705882352941-0.03181764705882353c-0.010411764705882353-0.020741176470588235-0.010411764705882353-0.020741176470588235-0.010411764705882353-0.020741176470588235s-0.0006705882352941177,0.02181764705882353-0.013735294117647059,0.024794117647058824c-0.0006352941176470588,0-0.005294117647058823,0.006941176470588235,0,0.012400000000000001c0.00033529411764705885,0.0009823529411764707-0.007094117647058824,0.0034705882352941177-0.004117647058823529,0.00793529411764706c-0.0004941176470588236,0-0.006452941176470588,0.0019823529411764707-0.001488235294117647,0.010905882352941177c0.005464705882352942,0.01636470588235294,0.02231764705882353,0.07388823529411764,0.04364117647058823,0.10761176470588235c-0.001,0.0004941176470588236,0.01288235294117647,0.03222941176470588,0.0357,0.03272352941176471c0.02181764705882353,0.0019823529411764707,0.02578235294117647,0.002488235294117647,0.02578235294117647,0.002488235294117647s0.01488235294117647,0.0019823529411764707,0.020841176470588234-0.0034823529411764703c0.005947058823529411-0.005452941176470588,0.05899411764705882-0.07289411764705882,0.05899411764705882-0.07289411764705882s0.03768823529411765-0.05752941176470588,0.036688235294117647-0.1269470588235294C0.8983294117647059,0.49751764705882356,0.8908941176470588,0.5004882352941177,0.845764705882353,0.47718235294117645z"/>
<path fill="#FFFFFF" d="M0.6672529411764706,0.639335294117647c-0.001-0.0014764705882352942-0.0034823529411764703-0.015364705882352942-0.01885294117647059-0.014870588235294118c-0.00047647058823529413-0.0004941176470588236-0.006941176470588235,0.0009941176470588235-0.00793529411764706-0.010911764705882353c-0.0009882352941176472-0.008923529411764705-0.009911764705882353-0.010905882352941177-0.02032941176470588-0.007435294117647059c-0.00048823529411764707,0-0.016358823529411766,0.004470588235294118-0.02528235294117647-0.010417647058823528c-0.005958823529411764-0.010905882352941177-0.013388235294117645-0.013876470588235294-0.026788235294117647-0.00991764705882353c-0.0009941176470588235-0.0009882352941176472-0.015364705882352942,0.0024823529411764707-0.024300000000000002-0.018347058823529414c-0.005452941176470588-0.014870588235294118-0.00896470588235294-0.021811764705882353-0.032-0.029752941176470586v0.0773529411764706c0,0,0.0007588235294117647,0.0037058823529411765,0.0092,0.006311764705882353c0.006441176470588235,0.008576470588235293,0.008429411764705883,0.011541176470588235,0.008429411764705883,0.011541176470588235s0.004958823529411765,0.010911764705882353,0.021323529411764706,0.012400000000000001c0.020323529411764706,0.0029647058823529414,0.04264705882352941,0.0029647058823529414,0.07339411764705883,0.02677647058823529c0.02031764705882353,0.024794117647058824,0.03917647058823529,0.05108823529411765,0.03917647058823529,0.05108823529411765s0.005452941176470588,0.006435294117647059,0,0.01338235294117647c0.0004823529411764706,0.0009823529411764707-0.00408235294117647,0.01636470588235294,0.0024058823529411765,0.0228c-0.00042352941176470585-0.0004941176470588236-0.02076470588235294,0.0064470588235294125-0.017294117647058824,0.021323529411764706c-0.0009823529411764707-0.0004941176470588236,0.004470588235294118,0.02082941176470588-0.016852941176470588,0.01488235294117647c-0.0034705882352941177-0.002976470588235294-0.01288235294117647-0.00881764705882353-0.012400000000000001,0.0010470588235294118c0.0009941176470588235-0.00005882352941176471-0.0004941176470588236,0.029705882352941176-0.00841764705882353,0.023747058823529413c-0.0005058823529411764-0.0005-0.010417647058823528-0.005952941176470588-0.010417647058823528-0.005952941176470588s-0.01388823529411765-0.01438235294117647-0.02032941176470588-0.0014764705882352942c-0.0034823529411764703,0.00047647058823529413-0.012400000000000001,0.0104-0.013394117647058824,0.0019764705882352944c-0.0004823529411764706,0,0.0019823529411764707-0.0064470588235294125,0.0019823529411764707-0.0064470588235294125s0.011411764705882352-0.01388823529411765-0.017841176470588235-0.010911764705882353c-0.001,0.0009882352941176472-0.01934705882352941,0.006452941176470588-0.01388823529411765-0.008429411764705883c0.0034705882352941177-0.009429411764705882,0.0034705882352941177-0.009429411764705882,0.0034705882352941177-0.009429411764705882s0.00793529411764706-0.014376470588235294-0.007941176470588236-0.01586470588235294c-0.0014764705882352942-0.0014823529411764707-0.013876470588235294,0.002976470588235294-0.005941176470588235-0.0119c0.004464705882352941-0.004464705882352941,0.007435294117647059-0.0064470588235294125,0.007435294117647059-0.0064470588235294125s0.008923529411764705-0.004958823529411765,0.0009941176470588235-0.017358823529411767c0-0.0004941176470588236-0.002976470588235294-0.003964705882352941-0.002976470588235294-0.003964705882352941s0.006947058823529412-0.00991764705882353,0.01388823529411765-0.016852941176470588c0.004464705882352941-0.005958823529411764,0.008429411764705883-0.011405882352941177,0.005452941176470588-0.019847058823529412c-0.0029823529411764707-0.008429411764705883-0.008441176470588235-0.010905882352941177-0.018347058823529414-0.0019823529411764707c-0.009429411764705882,0.008441176470588235-0.025341176470588235,0.016870588235294116-0.0211,0.04117058823529412c0.0002764705882352941,0.0228-0.0007117647058823529,0.03606470588235294-0.0007117647058823529,0.03606470588235294s-0.005011764705882353,0.054664705882352935,0.0007117647058823529,0.08107647058823529c-0.00022941176470588236,0.0011058823529411764,0.005729411764705882,0.019717647058823527,0.019488235294117646,0.02416470588235294c0.013388235294117645,0.006705882352941176,0.018976470588235293,0.008564705882352941,0.018976470588235293,0.008564705882352941s0.0381764705882353,0.022429411764705882,0.06644117647058824,0c0.02826470588235294-0.022441176470588235,0.04016470588235294-0.03186470588235294,0.04016470588235294-0.03186470588235294s0.030488235294117646-0.02776470588235294,0.04871764705882353-0.03967058823529412c0.01426470588235294-0.008935294117647059,0.01773529411764706-0.03469411764705882,0.00681764705882353-0.06049411764705883C0.7014647058823529,0.7186705882352942,0.6861,0.672064705882353,0.6672529411764706,0.639335294117647z"/>
<path fill="#FFFFFF" d="M0.8670882352941176,0.29618823529411764c-0.02578823529411765-0.031735294117647056-0.10463529411764706-0.021323529411764706-0.1150470588235294-0.015376470588235294c-0.0005,0.0004941176470588236-0.008441176470588235,0.0009941176470588235-0.008441176470588235,0.0009941176470588235l-0.006941176470588235,0.0004941176470588236c0,0-0.014864705882352941-0.005458823529411765-0.015858823529411765,0.009423529411764706c-0.001488235294117647,0.005947058823529411-0.009429411764705882,0.008923529411764705-0.02331764705882353,0.01338235294117647c-0.008923529411764705,0.0024823529411764707-0.01784705882352941,0.004958823529411765-0.012388235294117646,0.01835294117647059c0.001,0.005952941176470588,0.006441176470588235,0.0119-0.006941176470588235,0.014876470588235293c-0.013394117647058824,0.002976470588235294-0.024300000000000002,0.014876470588235293-0.014870588235294118,0.03520588235294118c-0.0005058823529411764-0.0004941176470588236,0.015858823529411765,0.013388235294117645,0.0034705882352941177,0.017358823529411767c-0.0034705882352941177-0.0014823529411764707-0.01388823529411765-0.005452941176470588-0.013388235294117645,0.008429411764705883c0.0004941176470588236,0.010411764705882353,0.004458823529411765,0.01785294117647059,0.003464705882352941,0.026282352941176472c-0.0029705882352941177,0.008923529411764705-0.014617647058823529,0.029011764705882355-0.05058823529411764,0.024300000000000002c0,0-0.015858823529411765-0.007441176470588235-0.016841176470588234,0.00793529411764706c0.0004823529411764706,0.00991764705882353-0.0015,0.00818235294117647-0.005464705882352942,0.014258823529411765c-0.003964705882352941,0.0060705882352941175-0.018729411764705883,0.019464705882352943-0.005147058823529412,0.019964705882352943c0.017041176470588233,0.0014823529411764707,0.061670588235294116,0.008423529411764705,0.11225294117647058-0.03125294117647059c0.02976470588235294-0.02528235294117647,0.030758823529411766-0.05652941176470588,0.03570588235294118-0.06842941176470588c0.004958823529411765-0.01735294117647059,0.01388823529411765-0.08727647058823529,0.07041764705882353-0.08231764705882352c0.024794117647058824,0.0024823529411764707,0.03272352941176471,0.00991764705882353,0.04362941176470588,0.023305882352941176c0-0.00048823529411764707,0.002988235294117647,0.004464705882352941,0.002988235294117647,0.004464705882352941s-0.002976470588235294,0.011894117647058822,0.009429411764705882,0.008923529411764705c0.0029647058823529414-0.0019823529411764707,0.010905882352941177,0.0064470588235294125,0.004464705882352941,0.010411764705882353c-0.002988235294117647,0.004458823529411765-0.002988235294117647,0.004458823529411765-0.002988235294117647,0.004458823529411765s-0.01388823529411765,0.009923529411764706,0.0009941176470588235,0.015370588235294117c0.005958823529411764,0.002976470588235294,0.010411764705882353,0.01388823529411765-0.003958823529411765,0.014876470588235293c-0.006952941176470588-0.0014823529411764707-0.011911764705882353,0.002976470588235294-0.008935294117647059,0.01636470588235294c0.003958823529411765,0.003476470588235294,0.003958823529411765,0.003476470588235294,0.003958823529411765,0.003476470588235294l-0.0024705882352941176,0.002976470588235294c0,0-0.0019823529411764707,0.003464705882352941-0.003964705882352941,0.006941176470588235c0.0004823529411764706-0.0005-0.00991764705882353-0.001488235294117647-0.00991764705882353-0.001488235294117647s-0.012400000000000001-0.007435294117647059-0.012400000000000001,0.003970588235294118c-0.0005058823529411764,0.0009882352941176472-0.005958823529411764,0.009417647058823529-0.010411764705882353-0.001988235294117647c-0.001-0.00793529411764706-0.010911764705882353-0.004958823529411765-0.019341176470588233-0.00048823529411764707c-0.006452941176470588,0.0019823529411764707-0.01388823529411765-0.0024823529411764707-0.017358823529411767-0.007447058823529412c-0.0034705882352941177-0.004958823529411765-0.005958823529411764-0.008923529411764705-0.005958823529411764-0.008923529411764705s-0.005452941176470588-0.010411764705882353-0.01338235294117647-0.0004941176470588236c0-0.0009882352941176472-0.005452941176470588,0.001988235294117647,0.0005,0.01587058823529412c0.005947058823529411,0.013876470588235294,0.021311764705882353,0.0357,0.07635882352941177,0.04065882352941176c0.04611764705882353-0.0009882352941176472,0.06545882352941176,0.0005,0.07785882352941177-0.05404705882352941C0.9102235294117647,0.3671,0.8958411764705883,0.3299058823529412,0.8670882352941176,0.29618823529411764z"/>
<path fill="#FFFFFF" d="M0.33648823529411764,0.6274352941176471c0.004958823529411765-0.008923529411764705-0.0009882352941176472-0.010905882352941177-0.0014823529411764707-0.010905882352941177c0.002976470588235294-0.004464705882352941-0.004458823529411765-0.006952941176470588-0.004123529411764706-0.00793529411764706c0.0053-0.005464705882352942,0.0006529411764705882-0.012400000000000001,0-0.012400000000000001c-0.013047058823529412-0.002976470588235294-0.013729411764705882-0.024794117647058824-0.013729411764705882-0.024794117647058824s0,0-0.010411764705882353,0.020741176470588235c-0.006941176470588235,0.02422941176470588,0.003964705882352941,0.03181764705882353,0.003964705882352941,0.03181764705882353s0.002476470588235294,0,0.003970588235294118,0.004458823529411765c-0.003970588235294118,0.005458823529411765-0.010911764705882353,0.006952941176470588-0.010911764705882353,0.0064470588235294125c-0.005452941176470588-0.0014764705882352942-0.00793529411764706,0.0019941176470588237-0.006941176470588235,0.01587058823529412c0.0064470588235294125,0.0024823529411764707,0.001488235294117647,0.01338235294117647,0.0019823529411764707,0.01338235294117647c-0.0027176470588235295,0.0036294117647058823-0.002123529411764706,0.007670588235294118-0.001623529411764706,0.008329411764705882c-0.015794117647058823-0.01274705882352941-0.026647058823529413-0.007276470588235295-0.030611764705882352,0.011011764705882353c-0.003964705882352941,0.018358823529411764-0.012394117647058825,0.003976470588235294-0.0119,0.003976470588235294c-0.0034705882352941177-0.017358823529411767-0.02181764705882353-0.011905882352941176-0.028758823529411767,0.0009941176470588235c-0.0019823529411764707,0.008423529411764705-0.00793529411764706,0.0029705882352941177-0.010911764705882353-0.0024823529411764707c-0.0009882352941176472-0.012894117647058825-0.014870588235294118-0.008935294117647059-0.023299999999999998-0.004970588235294117c-0.02181764705882353,0.0019941176470588237-0.009923529411764706-0.012388235294117646-0.010417647058823528-0.01288235294117647c0.01438235294117647-0.02578823529411765-0.00991764705882353-0.024794117647058824-0.00991764705882353-0.024794117647058824s-0.004458823529411765,0-0.005452941176470588,0c-0.009923529411764706-0.005452941176470588-0.005458823529411765-0.01884705882352941-0.005952941176470588-0.01884705882352941c0.010411764705882353-0.008923529411764705,0.012894117647058825-0.01884705882352941,0.006441176470588235-0.02777058823529412c-0.008423529411764705-0.0034705882352941177,0-0.0119,0-0.0119l0.029758823529411765-0.03222941176470588c0,0,0.012888235294117647-0.014370588235294118,0.030247058823529415-0.022811764705882354c0.03718823529411765-0.015370588235294117,0.11057647058823529,0.026294117647058822,0.14231764705882352,0.04462352941176471c0.02777058823529412,0.012400000000000001,0.05652941176470588,0.0005058823529411764,0.057029411764705884,0c0.012394117647058825-0.007429411764705881,0.05602941176470588-0.0352,0.0719-0.04462352941176471c0.012394117647058825-0.009923529411764706-0.0034705882352941177-0.018841176470588233-0.0034705882352941177-0.018841176470588233s0.001488235294117647,0.0014823529411764707-0.016858823529411766-0.0119c-0.02033529411764706-0.016858823529411766-0.03272941176470588,0-0.03272941176470588,0s0,0-0.009229411764705882,0.009423529411764706c-0.014723529411764706,0.014170588235294117-0.022505882352941178,0.009923529411764706-0.022505882352941178,0.009923529411764706s-0.0064470588235294125-0.0009882352941176472-0.0064470588235294125-0.0005c0.001488235294117647-0.008423529411764705-0.008923529411764705-0.012388235294117646-0.008923529411764705-0.012388235294117646c-0.007441176470588235-0.007441176470588235-0.012400000000000001-0.0014941176470588235-0.013388235294117645-0.0005c-0.014876470588235293,0.01388235294117647-0.02578235294117647-0.01338235294117647-0.02529411764705882-0.01338235294117647c-0.0034705882352941177-0.014876470588235293-0.02032941176470588-0.005452941176470588-0.02032941176470588-0.005452941176470588c-0.014876470588235293,0.008923529411764705-0.01636470588235294-0.0024823529411764707-0.017358823529411767-0.0024823529411764707c-0.005947058823529411-0.0119-0.01784705882352941-0.011405882352941177-0.02677058823529412-0.006941176470588235c-0.011405882352941177,0.008923529411764705-0.01686470588235294,0.001488235294117647-0.01587058823529412,0.0009941176470588235c-0.008429411764705883-0.009923529411764706-0.026282352941176472-0.0034705882352941177-0.02528823529411765-0.004058823529411764c-0.014876470588235293-0.0015647058823529414-0.03669411764705883-0.0018941176470588235-0.04611764705882353,0c-0.005947058823529411,0.004870588235294117-0.008429411764705883,0.0015823529411764707-0.008429411764705883,0.0015823529411764707c-0.012894117647058825-0.004458823529411765-0.029752941176470586,0.0019823529411764707-0.030252941176470587,0.0019823529411764707c-0.04512352941176471,0.023305882352941176-0.052564705882352944,0.02033529411764706-0.05355294117647058,0.08975882352941177c-0.0009882352941176472,0.06941764705882353,0.03669411764705883,0.1269470588235294,0.03669411764705883,0.1269470588235294s0.05305882352941176,0.06744117647058824,0.05900588235294118,0.07289411764705882c0.005952941176470588,0.005464705882352942,0.02082941176470588,0.0034823529411764703,0.02082941176470588,0.0034823529411764703s0.003964705882352941-0.0005058823529411764,0.02578823529411765-0.002488235294117647c0.022805882352941176-0.0005,0.036688235294117647-0.03222941176470588,0.0357-0.03272352941176471C0.3141764705882353,0.7013235294117647,0.3310352941176471,0.6438,0.33648823529411764,0.6274352941176471z"/>
<path fill="#FFFFFF" d="M0.5030941176470588,0.7626823529411765c0,0-0.0009823529411764707-0.01326470588235294-0.0007117647058823529-0.03606470588235294c0.0042352941176470585-0.024300000000000002-0.011676470588235295-0.03272941176470588-0.021094117647058822-0.04117058823529412c-0.00991764705882353-0.008923529411764705-0.015376470588235294-0.0064470588235294125-0.01835294117647059,0.0019823529411764707c-0.002976470588235294,0.008441176470588235,0.0009941176470588235,0.01388823529411765,0.005458823529411765,0.019847058823529412c0.006941176470588235,0.006941176470588235,0.01388235294117647,0.016852941176470588,0.01388235294117647,0.016852941176470588s-0.0029705882352941177,0.0034705882352941177-0.0029705882352941177,0.003964705882352941c-0.00793529411764706,0.012400000000000001,0.0009882352941176472,0.017358823529411767,0.0009882352941176472,0.017358823529411767s0.0029705882352941177,0.0019823529411764707,0.007441176470588235,0.0064470588235294125c0.00793529411764706,0.014876470588235293-0.004464705882352941,0.010417647058823528-0.005952941176470588,0.0119c-0.01587058823529412,0.001488235294117647-0.00793529411764706,0.01586470588235294-0.00793529411764706,0.01586470588235294s0,0,0.003476470588235294,0.009429411764705882c0.005452941176470588,0.014876470588235293-0.012894117647058825,0.009417647058823529-0.01388823529411765,0.008429411764705883c-0.029258823529411764-0.002976470588235294-0.01785294117647059,0.010911764705882353-0.01785294117647059,0.010911764705882353s0.0024823529411764707,0.0064470588235294125,0.0019823529411764707,0.0064470588235294125c-0.0009882352941176472,0.008423529411764705-0.00991764705882353-0.0015-0.01338235294117647-0.0019764705882352944c-0.0064470588235294125-0.012905882352941177-0.02033529411764706,0.0014764705882352942-0.02033529411764706,0.0014764705882352942s-0.00991764705882353,0.005452941176470588-0.010411764705882353,0.005952941176470588c-0.00793529411764706,0.005958823529411764-0.009429411764705882-0.023805882352941173-0.008435294117647058-0.023747058823529413c0.0005-0.009864705882352942-0.008929411764705882-0.004023529411764706-0.012394117647058825-0.0010470588235294118c-0.021323529411764706,0.005947058823529411-0.01587058823529412-0.015376470588235294-0.01686470588235294-0.01488235294117647c0.003476470588235294-0.014876470588235293-0.016852941176470588-0.02181764705882353-0.017294117647058824-0.021323529411764706c0.006505882352941177-0.006435294117647059,0.0019294117647058824-0.02181764705882353,0.002423529411764706-0.0228c-0.005452941176470588-0.006952941176470588,0-0.01338235294117647,0-0.01338235294117647s0.018841176470588233-0.026294117647058822,0.03917058823529412-0.05108823529411765c0.030752941176470587-0.02381176470588235,0.053064705882352944-0.02381176470588235,0.07339411764705883-0.02677647058823529c0.01636470588235294-0.001488235294117647,0.021323529411764706-0.012400000000000001,0.021323529411764706-0.012400000000000001s0.0019823529411764707-0.0029647058823529414,0.008423529411764705-0.011541176470588235c0.008441176470588235-0.0026058823529411766,0.0092-0.006311764705882353,0.0092-0.006311764705882353v-0.0773529411764706c-0.02303529411764706,0.007941176470588236-0.026552941176470588,0.014876470588235293-0.032005882352941176,0.029752941176470586c-0.008929411764705882,0.02082941176470588-0.023305882352941176,0.017358823529411767-0.024294117647058824,0.018347058823529414c-0.013394117647058824-0.003964705882352941-0.02082941176470588-0.0009882352941176472-0.02678235294117647,0.00991764705882353c-0.008923529411764705,0.014888235294117648-0.02478823529411765,0.010417647058823528-0.02528823529411765,0.010417647058823528c-0.010411764705882353-0.0034705882352941177-0.019341176470588233-0.001488235294117647-0.02032941176470588,0.007435294117647059c-0.0009882352941176472,0.011905882352941176-0.007435294117647059,0.010417647058823528-0.00793529411764706,0.010911764705882353c-0.015370588235294117-0.0004941176470588236-0.01784705882352941,0.013394117647058824-0.018841176470588233,0.014870588235294118c-0.01884705882352941,0.03272941176470588-0.03421764705882353,0.07933529411764706-0.04512941176470588,0.10512941176470589c-0.010905882352941177,0.0258-0.007435294117647059,0.05156470588235294,0.006823529411764706,0.06049411764705883c0.018229411764705883,0.011905882352941176,0.04871764705882353,0.03967058823529412,0.04871764705882353,0.03967058823529412s0.0119,0.009423529411764706,0.04017058823529412,0.03186470588235294c0.02826470588235294,0.022429411764705882,0.06644705882352941,0,0.06644705882352941,0s0.005582352941176471-0.0018588235294117648,0.018970588235294118-0.008564705882352941c0.013758823529411764-0.004452941176470588,0.019717647058823527-0.023058823529411764,0.019488235294117646-0.02416470588235294C0.5081117647058824,0.8173470588235295,0.5030941176470588,0.7626823529411765,0.5030941176470588,0.7626823529411765z"/>
<path fill="#FFFFFF" d="M0.18574117647058824,0.46131176470588237c0.055047058823529414-0.004958823529411765,0.07041764705882353-0.02677647058823529,0.07637058823529412-0.04065882352941176c0.005952941176470588-0.01388235294117647,0.0004941176470588236-0.01686470588235294,0.0004941176470588236-0.01587058823529412c-0.00793529411764706-0.00991764705882353-0.013388235294117645,0.0004941176470588236-0.013388235294117645,0.0004941176470588236s-0.002476470588235294,0.003964705882352941-0.005952941176470588,0.008923529411764705c-0.003464705882352941,0.004964705882352941-0.010911764705882353,0.009429411764705882-0.01735294117647059,0.007447058823529412c-0.008429411764705883-0.004464705882352941-0.018347058823529414-0.007447058823529412-0.019341176470588233,0.00048823529411764707c-0.004464705882352941,0.011405882352941177-0.009923529411764706,0.002976470588235294-0.010411764705882353,0.001988235294117647c0-0.011405882352941177-0.012400000000000001-0.003970588235294118-0.012400000000000001-0.003970588235294118s-0.010417647058823528,0.0009882352941176472-0.00991764705882353,0.001488235294117647c-0.0019823529411764707-0.003476470588235294-0.003970588235294118-0.006941176470588235-0.003970588235294118-0.006941176470588235l-0.0024823529411764707-0.002976470588235294c0,0,0,0,0.003964705882352941-0.003476470588235294c0.002976470588235294-0.013388235294117645-0.0019823529411764707-0.01784705882352941-0.008929411764705882-0.01636470588235294c-0.01438235294117647-0.0009882352941176472-0.00991764705882353-0.0119-0.003964705882352941-0.014876470588235293c0.014876470588235293-0.005447058823529412,0.0009882352941176472-0.015370588235294117,0.0009882352941176472-0.015370588235294117s0,0-0.0029705882352941177-0.004458823529411765c-0.0064470588235294125-0.003964705882352941,0.001488235294117647-0.012394117647058825,0.004464705882352941-0.010411764705882353c0.012394117647058825,0.0029705882352941177,0.009423529411764706-0.008923529411764705,0.009423529411764706-0.008923529411764705s0.002976470588235294-0.004958823529411765,0.002976470588235294-0.004464705882352941c0.010911764705882353-0.013394117647058824,0.01884705882352941-0.020823529411764706,0.04363529411764706-0.023305882352941176c0.05652941176470588-0.004958823529411765,0.06545294117647059,0.06496470588235294,0.07041764705882353,0.08231764705882352c0.004958823529411765,0.0119,0.005952941176470588,0.04314117647058823,0.0357,0.06842941176470588c0.050582352941176474,0.03967647058823529,0.09521176470588236,0.032735294117647064,0.11225882352941176,0.03125294117647059c0.013576470588235292-0.0004941176470588236-0.0011823529411764708-0.013894117647058824-0.005147058823529412-0.019964705882352943c-0.003964705882352941-0.006076470588235293-0.005952941176470588-0.0043411764705882355-0.005452941176470588-0.014258823529411765c-0.0009882352941176472-0.015370588235294117-0.016858823529411766-0.00793529411764706-0.016858823529411766-0.00793529411764706c-0.03595294117647059,0.004711764705882353-0.04760588235294118-0.015376470588235294-0.050582352941176474-0.024300000000000002c-0.0009941176470588235-0.008429411764705883,0.002976470588235294-0.01587058823529412,0.003464705882352941-0.026282352941176472c0.0005-0.01388235294117647-0.009911764705882353-0.00991764705882353-0.013388235294117645-0.008429411764705883c-0.012394117647058825-0.003970588235294118,0.003970588235294118-0.01785294117647059,0.003476470588235294-0.017358823529411767c0.009423529411764706-0.02032941176470588-0.001488235294117647-0.03222941176470588-0.014876470588235293-0.03520588235294118c-0.01338235294117647-0.002976470588235294-0.00793529411764706-0.008923529411764705-0.006941176470588235-0.014876470588235293c0.005452941176470588-0.013388235294117645-0.0034705882352941177-0.01586470588235294-0.012394117647058825-0.01835294117647059c-0.01388235294117647-0.004458823529411765-0.02181764705882353-0.007435294117647059-0.023305882352941176-0.01338235294117647c-0.0009882352941176472-0.01488235294117647-0.01587058823529412-0.009423529411764706-0.01587058823529412-0.009423529411764706l-0.006941176470588235-0.0004941176470588236c0,0-0.00793529411764706-0.0005-0.008429411764705883-0.0009941176470588235c-0.010411764705882353-0.005947058823529411-0.08925882352941177-0.016358823529411766-0.1150470588235294,0.015376470588235294c-0.028758823529411767,0.03371764705882353-0.04313529411764706,0.07091764705882353-0.03917647058823529,0.11107647058823529C0.12028823529411765,0.4618117647058823,0.13962941176470586,0.4603235294117647,0.18574117647058824,0.46131176470588237z"/>
</mask>
</defs>
<circle opacity="0.75" fill="#FFFFFF" cx="86" cy="86.828" r="80"/>
<path fill="#FFFFFF" d="M86,166.989c-44.388,0-80.5-36.112-80.5-80.5s36.112-80.5,80.5-80.5s80.5,36.112,80.5,80.5S130.388,166.989,86,166.989z M86,10.989c-41.631,0-75.5,33.869-75.5,75.5s33.869,75.5,75.5,75.5s75.5-33.869,75.5-75.5S127.631,10.989,86,10.989z"/>
<path fill="#FFFFFF" d="M87.883,84.387c1.292-0.188,1.622-0.568,1.679-0.884c0.056-0.443-0.323-2.592-0.323-2.592s0.505,2.445,1.475,2.403c0.969-0.042,2.486-0.337,2.612-1.349c-0.421-1.18-0.504-1.728-0.504-1.728s0.673,0.801,0.885,1.348c0.042-0.084,0.885,1.012,1.98,0c0.55-0.336,0.55-0.336,0.55-0.336s-0.086-0.97,0.251-0.97c0.084,0,0.381,0.506,0.59,0.084c0.212-0.421,0.295-0.758,0.295-0.758s1.055-1.138,0-2.951c-0.42-0.97-0.42-0.97-0.42-0.97l0.167-0.21l-0.042-1.264l1.771,0.126c0,0,3.983,0.633,4.995-0.189c-0.064,0,1.768,0.632,2.148-0.379c0-0.127,0.506-0.127,0.759-1.013c0.316-0.441,0.316-0.441,0.316-0.441s0.885-1.076,0-3.541c-0.063-0.063,1.517,0.632,1.707-1.96c0.125-2.53-2.213-3.667-2.023-4.806c0.065-1.77,0.2-3.711,2.027-7.482c1.704-5.857,3.98-18.756-2.596-24.193c-6.576-5.438-12.709-5.754-19.979-5.69c-7.271-0.064-13.404,0.252-19.979,5.69c-6.575,5.437-4.299,18.335-2.597,24.193c1.828,3.771,1.965,5.712,2.028,7.482c0.19,1.138-2.149,2.276-2.022,4.806c0.189,2.592,1.77,1.897,1.707,1.96c-0.885,2.465,0,3.541,0,3.541s0,0,0.316,0.441c0.253,0.886,0.759,0.886,0.759,1.013c0.379,1.011,2.212,0.379,2.15,0.379c1.012,0.822,4.994,0.189,4.994,0.189l1.771-0.126l-0.042,1.264l0.169,0.21c0,0,0,0-0.422,0.97c-1.054,1.813,0,2.951,0,2.951s0.084,0.337,0.295,0.758c0.211,0.422,0.506-0.084,0.59-0.084c0.337,0,0.253,0.97,0.253,0.97s0,0,0.547,0.336c1.097,1.012,1.94-0.084,1.981,0c0.211-0.547,0.886-1.348,0.886-1.348s-0.084,0.548-0.506,1.728c0.126,1.012,1.644,1.307,2.614,1.349c0.969,0.042,1.475-2.403,1.475-2.403s-0.379,2.149-0.324,2.592c0.056,0.316,0.387,0.696,1.679,0.884c1.482,0.191,1.237-1.137,1.3-1.137c0.064-2.402,0.38-2.922,0.38-2.922s0.315,0.52,0.379,2.922C86.646,83.25,86.4,84.578,87.883,84.387z M98.395,57.685c3.339,0.254,4.5,3.288,4.247,5.902c-0.843,1.685-1.35,2.107-4.721,2.107c-4.046,0.421-7.924-3.373-7.924-3.373C90.924,62.321,94.802,57.939,98.395,57.685zM74.485,65.694c-3.373,0-3.878-0.422-4.721-2.107c-0.253-2.614,0.908-5.647,4.248-5.902c3.592,0.254,7.471,4.636,8.398,4.636C82.41,62.321,78.531,66.116,74.485,65.694z M82.916,71.258c0-1.687,3.288-6.744,3.288-6.744s3.288,5.058,3.288,6.744c0-0.169,0.842,3.372-3.288,1.518C82.072,74.63,82.916,71.089,82.916,71.258z"/>
<path fill="#FFFFFF" d="M143.78,81.121c-0.084,0-2.951-1.095-5.144-0.337c0,0-0.42,0.56-1.431-0.269c-1.603-0.322-5.313-0.266-7.842,0c0.17,0.1-2.865-0.997-4.298,0.69c0.167,0.084-0.76,1.348-2.698-0.169c-1.519-0.759-3.541-0.843-4.554,1.18c-0.168,0-0.419,1.939-2.949,0.422c0,0-2.866-1.603-3.456,0.927c0.084,0-1.771,4.636-4.3,2.275c-0.17-0.169-1.011-1.18-2.276,0.085c0,0-1.771,0.675-1.519,2.106c0-0.083-1.094,0.085-1.094,0.085s-1.324,0.723-3.826-1.687c-1.57-1.602-1.57-1.602-1.57-1.602s-2.108-2.866-5.563,0c-3.119,2.275-2.866,2.023-2.866,2.023s-2.697,1.517-0.59,3.203c2.696,1.602,10.116,6.323,12.224,7.586c0.084,0.086,4.973,2.108,9.693,0c5.396-3.116,17.873-10.199,24.196-7.586c2.949,1.435,5.142,3.878,5.142,3.878l5.058,5.479c0,0,1.433,1.434,0,2.023c-1.096,1.517-0.674,3.204,1.096,4.721c-0.084,0,0.676,2.277-1.01,3.204c-0.17,0-0.929,0-0.929,0s-4.132-0.169-1.687,4.215c-0.083,0.084,1.939,2.529-1.77,2.19c-1.435-0.674-3.794-1.348-3.962,0.845c-0.508,0.927-1.518,1.854-1.854,0.422c-1.182-2.193-4.301-3.12-4.891-0.169c0.086,0-1.349,2.445-2.022-0.676c-0.674-3.109-2.52-4.039-5.202-1.872c0.083-0.112,0.187-0.799-0.278-1.416c0.086,0-0.759-1.854,0.339-2.275c0.168-2.359-0.253-2.949-1.182-2.698c0,0.086-1.18-0.168-1.855-1.096c0.253-0.758,0.676-0.758,0.676-0.758s1.854-1.29,0.674-5.409c-1.77-3.526-1.77-3.526-1.77-3.526s-0.114,3.709-2.335,4.215c-0.108,0-0.9,1.18,0,2.108c0.057,0.167-1.206,0.59-0.7,1.349c-0.084,0-1.097,0.337-0.253,1.854c0.929,2.782,3.794,12.561,7.419,18.294c-0.17,0.084,2.19,5.479,6.069,5.563c3.709,0.337,4.383,0.423,4.383,0.423s2.53,0.337,3.543-0.592c1.011-0.927,10.029-12.392,10.029-12.392s6.407-9.78,6.237-21.581C152.716,84.578,151.452,85.083,143.78,81.121z"/>
<path fill="#FFFFFF" d="M113.433,108.687c-0.17-0.251-0.592-2.612-3.205-2.528c-0.081-0.084-1.18,0.169-1.349-1.855c-0.168-1.517-1.685-1.854-3.456-1.264c-0.083,0-2.781,0.76-4.298-1.771c-1.013-1.854-2.276-2.359-4.554-1.686c-0.169-0.168-2.612,0.422-4.131-3.119c-0.927-2.528-1.524-3.708-5.44-5.058v13.15c0,0,0.129,0.63,1.564,1.073c1.095,1.458,1.433,1.962,1.433,1.962s0.843,1.855,3.625,2.108c3.455,0.504,7.25,0.504,12.477,4.552c3.454,4.215,6.66,8.685,6.66,8.685s0.927,1.094,0,2.275c0.082,0.167-0.694,2.782,0.409,3.876c-0.072-0.084-3.53,1.096-2.94,3.625c-0.167-0.084,0.76,3.541-2.865,2.53c-0.59-0.506-2.19-1.499-2.108,0.178c0.169-0.01-0.084,5.05-1.431,4.037c-0.086-0.085-1.771-1.012-1.771-1.012s-2.361-2.445-3.456-0.251c-0.592,0.081-2.108,1.768-2.277,0.336c-0.082,0,0.337-1.096,0.337-1.096s1.94-2.361-3.033-1.855c-0.17,0.168-3.289,1.097-2.361-1.433c0.59-1.603,0.59-1.603,0.59-1.603s1.349-2.444-1.35-2.697c-0.251-0.252-2.359,0.506-1.01-2.023c0.759-0.759,1.264-1.096,1.264-1.096s1.517-0.843,0.169-2.951c0-0.084-0.506-0.674-0.506-0.674s1.181-1.686,2.361-2.865c0.759-1.013,1.433-1.939,0.927-3.374c-0.507-1.433-1.435-1.854-3.119-0.337c-1.603,1.435-4.308,2.868-3.587,6.999c0.047,3.876-0.121,6.131-0.121,6.131s-0.852,9.293,0.121,13.783c-0.039,0.188,0.974,3.352,3.313,4.108c2.276,1.14,3.226,1.456,3.226,1.456s6.49,3.813,11.295,0c4.805-3.815,6.828-5.417,6.828-5.417s5.183-4.72,8.282-6.744c2.425-1.519,3.015-5.898,1.159-10.284C119.249,122.174,116.637,114.251,113.433,108.687z"/>
<path fill="#FFFFFF" d="M147.405,50.352c-4.384-5.395-17.788-3.625-19.558-2.614c-0.085,0.084-1.435,0.169-1.435,0.169l-1.18,0.084c0,0-2.527-0.928-2.696,1.602c-0.253,1.011-1.603,1.517-3.964,2.275c-1.517,0.422-3.034,0.843-2.106,3.12c0.17,1.012,1.095,2.023-1.18,2.529c-2.277,0.506-4.131,2.529-2.528,5.985c-0.086-0.084,2.696,2.276,0.59,2.951c-0.59-0.252-2.361-0.927-2.276,1.433c0.084,1.77,0.758,3.035,0.589,4.468c-0.505,1.517-2.485,4.932-8.6,4.131c0,0-2.696-1.265-2.863,1.349c0.082,1.686-0.255,1.391-0.929,2.424c-0.674,1.032-3.184,3.309-0.875,3.394c2.897,0.252,10.484,1.432,19.083-5.313c5.06-4.298,5.229-9.61,6.07-11.633c0.843-2.95,2.361-14.837,11.971-13.994c4.215,0.422,5.563,1.686,7.417,3.962c0-0.083,0.508,0.759,0.508,0.759s-0.506,2.022,1.603,1.517c0.504-0.337,1.854,1.096,0.759,1.77c-0.508,0.758-0.508,0.758-0.508,0.758s-2.361,1.687,0.169,2.613c1.013,0.506,1.77,2.361-0.673,2.529c-1.182-0.252-2.025,0.506-1.519,2.782c0.673,0.591,0.673,0.591,0.673,0.591l-0.42,0.506c0,0-0.337,0.589-0.674,1.18c0.082-0.085-1.686-0.253-1.686-0.253s-2.108-1.264-2.108,0.675c-0.086,0.168-1.013,1.601-1.77-0.338c-0.17-1.349-1.855-0.843-3.288-0.083c-1.097,0.337-2.361-0.422-2.951-1.266c-0.59-0.843-1.013-1.517-1.013-1.517s-0.927-1.77-2.275-0.084c0-0.168-0.927,0.338,0.085,2.698c1.011,2.359,3.623,6.069,12.981,6.912c7.84-0.168,11.128,0.085,13.236-9.188C154.738,62.407,152.293,56.084,147.405,50.352z"/>
<path fill="#FFFFFF" d="M57.203,106.664c0.843-1.517-0.168-1.854-0.252-1.854c0.506-0.759-0.758-1.182-0.701-1.349c0.901-0.929,0.111-2.108,0-2.108c-2.218-0.506-2.334-4.215-2.334-4.215s0,0-1.77,3.526c-1.18,4.119,0.674,5.409,0.674,5.409s0.421,0,0.675,0.758c-0.675,0.928-1.855,1.182-1.855,1.096c-0.927-0.251-1.349,0.339-1.18,2.698c1.096,0.422,0.253,2.275,0.337,2.275c-0.462,0.617-0.361,1.304-0.276,1.416c-2.685-2.167-4.53-1.237-5.204,1.872c-0.674,3.121-2.107,0.676-2.023,0.676c-0.59-2.951-3.709-2.024-4.889,0.169c-0.337,1.432-1.349,0.505-1.855-0.422c-0.168-2.192-2.528-1.519-3.961-0.845c-3.709,0.339-1.687-2.106-1.771-2.19c2.445-4.384-1.686-4.215-1.686-4.215s-0.758,0-0.927,0c-1.687-0.927-0.928-3.204-1.012-3.204c1.77-1.517,2.192-3.204,1.095-4.721c-1.432-0.59,0-2.023,0-2.023l5.059-5.479c0,0,2.191-2.443,5.142-3.878c6.322-2.613,18.798,4.47,24.194,7.586c4.721,2.108,9.61,0.086,9.695,0c2.107-1.263,9.525-5.984,12.223-7.586c2.107-1.687-0.59-3.203-0.59-3.203s0.253,0.252-2.866-2.023c-3.457-2.866-5.564,0-5.564,0s0,0-1.569,1.602c-2.503,2.409-3.826,1.687-3.826,1.687s-1.096-0.168-1.096-0.085c0.253-1.432-1.517-2.106-1.517-2.106c-1.265-1.265-2.108-0.254-2.276-0.085c-2.529,2.36-4.383-2.275-4.3-2.275c-0.59-2.529-3.456-0.927-3.456-0.927c-2.529,1.517-2.782-0.422-2.951-0.422c-1.011-2.023-3.034-1.939-4.551-1.18c-1.939,1.517-2.867,0.253-2.698,0.169c-1.433-1.687-4.468-0.59-4.299-0.69c-2.529-0.266-6.238-0.322-7.84,0c-1.011,0.828-1.433,0.269-1.433,0.269c-2.192-0.758-5.058,0.337-5.143,0.337c-7.671,3.962-8.936,3.457-9.104,15.259c-0.168,11.801,6.238,21.581,6.238,21.581s9.02,11.465,10.031,12.392c1.012,0.929,3.541,0.592,3.541,0.592s0.674-0.086,4.384-0.423c3.877-0.085,6.237-5.479,6.069-5.563C53.41,119.225,56.276,109.446,57.203,106.664z"/>
<path fill="#FFFFFF" d="M85.526,129.656c0,0-0.167-2.255-0.121-6.131c0.72-4.131-1.985-5.564-3.586-6.999c-1.686-1.517-2.614-1.096-3.12,0.337c-0.506,1.435,0.169,2.361,0.928,3.374c1.18,1.18,2.36,2.865,2.36,2.865s-0.505,0.59-0.505,0.674c-1.349,2.108,0.168,2.951,0.168,2.951s0.505,0.337,1.265,1.096c1.349,2.529-0.759,1.771-1.012,2.023c-2.698,0.253-1.349,2.697-1.349,2.697s0,0,0.591,1.603c0.927,2.529-2.192,1.601-2.361,1.433c-4.974-0.506-3.035,1.855-3.035,1.855s0.422,1.096,0.337,1.096c-0.168,1.432-1.686-0.255-2.275-0.336c-1.096-2.194-3.457,0.251-3.457,0.251s-1.686,0.927-1.77,1.012c-1.349,1.013-1.603-4.047-1.434-4.037c0.085-1.677-1.518-0.684-2.107-0.178c-3.625,1.011-2.698-2.614-2.867-2.53c0.591-2.529-2.865-3.709-2.94-3.625c1.106-1.094,0.328-3.709,0.412-3.876c-0.927-1.182,0-2.275,0-2.275s3.203-4.47,6.659-8.685c5.228-4.048,9.021-4.048,12.477-4.552c2.782-0.253,3.625-2.108,3.625-2.108s0.337-0.504,1.432-1.962c1.435-0.443,1.564-1.073,1.564-1.073v-13.15c-3.916,1.35-4.514,2.529-5.441,5.058c-1.518,3.541-3.962,2.951-4.13,3.119c-2.277-0.674-3.541-0.168-4.553,1.686c-1.517,2.531-4.214,1.771-4.299,1.771c-1.77-0.59-3.288-0.253-3.456,1.264c-0.168,2.024-1.264,1.771-1.349,1.855c-2.613-0.084-3.034,2.277-3.203,2.528c-3.204,5.564-5.817,13.487-7.672,17.872c-1.854,4.386-1.264,8.766,1.16,10.284c3.099,2.024,8.282,6.744,8.282,6.744s2.023,1.602,6.829,5.417c4.805,3.813,11.296,0,11.296,0s0.949-0.316,3.225-1.456c2.339-0.757,3.352-3.92,3.313-4.108C86.379,138.949,85.526,129.656,85.526,129.656z"/>
<path fill="#FFFFFF" d="M31.576,78.423c9.358-0.843,11.971-4.552,12.983-6.912c1.012-2.36,0.084-2.867,0.084-2.698c-1.349-1.686-2.276,0.084-2.276,0.084s-0.421,0.674-1.012,1.517c-0.589,0.844-1.855,1.603-2.95,1.266c-1.433-0.759-3.119-1.266-3.288,0.083c-0.759,1.939-1.687,0.506-1.77,0.338c0-1.939-2.108-0.675-2.108-0.675s-1.771,0.168-1.686,0.253c-0.337-0.591-0.675-1.18-0.675-1.18l-0.422-0.506c0,0,0,0,0.674-0.591c0.506-2.276-0.337-3.034-1.518-2.782c-2.445-0.168-1.686-2.023-0.674-2.529c2.529-0.926,0.168-2.613,0.168-2.613s0,0-0.505-0.758c-1.096-0.674,0.253-2.107,0.759-1.77c2.107,0.505,1.602-1.517,1.602-1.517s0.506-0.843,0.506-0.759c1.855-2.277,3.204-3.54,7.418-3.962c9.61-0.843,11.127,11.044,11.971,13.994c0.843,2.023,1.012,7.334,6.069,11.633c8.599,6.745,16.186,5.565,19.084,5.313c2.308-0.084-0.201-2.362-0.875-3.394c-0.674-1.033-1.012-0.738-0.927-2.424c-0.168-2.613-2.866-1.349-2.866-1.349c-6.112,0.801-8.093-2.614-8.599-4.131c-0.169-1.433,0.506-2.698,0.589-4.468c0.085-2.36-1.685-1.686-2.276-1.433c-2.107-0.675,0.675-3.035,0.591-2.951c1.602-3.456-0.253-5.479-2.529-5.985c-2.275-0.506-1.349-1.517-1.18-2.529c0.927-2.276-0.59-2.697-2.107-3.12c-2.36-0.758-3.709-1.264-3.962-2.275c-0.168-2.53-2.698-1.602-2.698-1.602l-1.18-0.084c0,0-1.349-0.085-1.433-0.169c-1.77-1.011-15.174-2.781-19.558,2.614c-4.889,5.732-7.333,12.056-6.66,18.883C20.449,78.508,23.737,78.255,31.576,78.423z"/>
</svg>