<?xml version="1.0" encoding="utf-8"?>
<svg version="1.1" xmlns="http://www.w3.org/2000/svg" preserveAspectRatio="none" viewBox="0 0 484 196" width="100%" height="100%">
<defs>
<mask id="mask" maskUnits="objectBoundingBox" maskContentUnits="objectBoundingBox" x="0" y="0" width="100%" height="100%">
<polygon id="M" fill="#FFFFFF" points="0.0371900826446281,0.08418367346938775 0.0371900826446281,0.9260204081632653 0.09400826446280992,0.9260204081632653 0.09400826446280992,0.5960867346938775 0.10020661157024793,0.5960867346938775 0.12706611570247933,0.9260204081632653 0.15495867768595042,0.9260204081632653 0.18233471074380164,0.5956632653061225 0.18698347107438015,0.5956632653061225 0.18698347107438015,0.9260204081632653 0.2453512396694215,0.9260204081632653 0.2453512396694215,0.08418367346938775 0.17045454545454544,0.08418367346938775 0.1412706611570248,0.4477040816326531 0.13980785123966943,0.4477040816326531 0.11053719008264463,0.08418367346938775"/>
<path id="A" fill="#FFFFFF" d="M0.3663904958677686,0.08418367346938775H0.29338842975206614l-0.050964876033057854,0.8418367346938775H0.2975206611570248l0.006198347107438017-0.08418367346938775h0.05027479338842975l0.006198347107438017,0.08418367346938775h0.05440702479338843L0.3663904958677686,0.08418367346938775z M0.3119834710743802,0.6913265306122449l0.01652892561983471-0.2729591836734694h0.0030991735537190084l0.01859504132231405,0.2729591836734694H0.3119834710743802z"/>
<path id="R" fill="#FFFFFF" d="M0.53099173553719,0.6045918367346939c0,0,0.042355371900826444-0.08163265306122448,0.042355371900826444-0.24489795918367346s-0.042012396694214874-0.2627551020408163-0.07679132231404959-0.2755102040816326c-0.03374586776859504,0-0.08195661157024793,0-0.08195661157024793,0v0.8418367346938775H0.47417355371900827V0.6530612244897959h0.007231404958677686l0.03925619834710744,0.2729591836734694h0.05785123966942149L0.53099173553719,0.6045918367346939z M0.5103305785123967,0.3647959183673469C0.5082644628099173,0.47959183673469385,0.47210743801652894,0.4897959183673469,0.47210743801652894,0.4897959183673469V0.23979591836734693C0.5144628099173554,0.28316326530612246,0.5103305785123967,0.3647959183673469,0.5103305785123967,0.3647959183673469z"/>
<polygon id="V" fill="#FFFFFF" points="0.6163904958677686,0.08418367346938775 0.5533739669421488,0.08418367346938775 0.6088161157024793,0.9260204081632653 0.6735537190082644,0.9260204081632653 0.7262396694214877,0.08418367346938775 0.6701115702479339,0.08418367346938775 0.6429070247933883,0.5391173469387756 0.6398078512396693,0.5391173469387756"/>
<polygon id="E" fill="#FFFFFF" points="0.8388429752066116,0.08418367346938775 0.7241735537190083,0.08418367346938775 0.7241735537190083,0.9260204081632653 0.8388429752066116,0.9260204081632653 0.8388429752066116,0.7525510204081632 0.7851239669421488,0.7551020408163265 0.7851239669421488,0.5918367346938775 0.8388429752066116,0.5918367346938775 0.8388429752066116,0.4336734693877551 0.7844359504132231,0.43197448979591835 0.7844359504132231,0.2687091836734694 0.8388429752066116,0.2687091836734694"/>
<polygon id="L" fill="#FFFFFF" points="0.9146012396694214,0.08418367346938775 0.8546838842975206,0.08418367346938775 0.8546838842975206,0.9260204081632653 0.9662541322314049,0.9260204081632653 0.9662541322314049,0.7551020408163265 0.9146012396694214,0.7551020408163265"/>
</mask>
</defs>
<polygon id="M" fill="#FFFFFF" points="18,16.5 18,181.5 45.5,181.5 45.5,116.833 48.5,116.833 61.5,181.5 75,181.5 88.25,116.75 90.5,116.75 90.5,181.5 118.75,181.5 118.75,16.5 82.5,16.5 68.375,87.75 67.667,87.75 53.5,16.5 "/>
<path id="A" fill="#FFFFFF" d="M177.333,16.5H142l-24.667,165H144l3-16.5h24.333l3,16.5h26.333L177.333,16.5z M151,135.5l8-53.5h1.5l9,53.5H151z"/>
<path id="R" fill="#FFFFFF" d="M257,118.5c0,0,20.5-16,20.5-48s-20.334-51.5-37.167-54c-16.333,0-39.667,0-39.667,0v165H229.5V128h3.5l19,53.5h28L257,118.5z M247,71.5C246,94,228.5,96,228.5,96V47C249,55.5,247,71.5,247,71.5z"/>
<polygon id="V" fill="#FFFFFF" points="298.333,16.5 267.833,16.5 294.667,181.5 326,181.5 351.5,16.5 324.334,16.5 311.167,105.667 309.667,105.667 "/>
<polygon id="E" fill="#FFFFFF" points="406,16.5 350.5,16.5 350.5,181.5 406,181.5 406,147.5 380,148 380,116 406,116 406,85 379.667,84.667 379.667,52.667 406,52.667 "/>
<polygon id="L" fill="#FFFFFF" points="442.667,16.5 413.667,16.5 413.667,181.5 467.667,181.5 467.667,148 442.667,148 "/>
</svg>