<?xml version="1.0" encoding="utf-8"?>
<svg version="1.1" xmlns="http://www.w3.org/2000/svg" preserveAspectRatio="none" viewBox="0 0 484 196" width="100%" height="100%">
<defs>
<mask id="mask" maskUnits="objectBoundingBox" maskContentUnits="objectBoundingBox" x="0" y="0" width="100%" height="100%">
<polygon fill="#FFFFFF" points="0.3285123966942149,0.41836734693877553 0.3119834710743802,0.6913265306122449 0.35020661157024796,0.6913265306122449 0.33161157024793386,0.41836734693877553"/>
<path fill="#FFFFFF" d="M0.47210743801652894,0.23979591836734693v0.25c0,0,0.03615702479338843-0.01020408163265306,0.038223140495867766-0.125C0.5103305785123967,0.3647959183673469,0.5144628099173554,0.28316326530612246,0.47210743801652894,0.23979591836734693z"/>
<path fill="#FFFFFF" d="M0,0v1h1V0H0z M0.8388429752066116,0.2687091836734694h-0.05440702479338843v0.16326530612244897L0.8388429752066116,0.4336734693877551v0.15816326530612246h-0.05371900826446281v0.16326530612244897l0.05371900826446281-0.002551020408163265v0.17346938775510204h-0.11466942148760331V0.11719897959183674L0.6735537190082644,0.9260204081632653h-0.06473760330578512L0.5730330578512397,0.3826887755102041C0.5693326446280992,0.5305816326530612,0.53099173553719,0.6045918367346939,0.53099173553719,0.6045918367346939l0.047520661157024795,0.32142857142857145h-0.05785123966942149L0.48140495867768596,0.6530612244897959h-0.007231404958677686v0.2729591836734694h-0.05957231404958677h-0.05440702479338843l-0.006198347107438017-0.08418367346938775H0.3037190082644628l-0.006198347107438017,0.08418367346938775h-0.052169421487603305h-0.002927685950413223H0.18698347107438015v-0.33035714285714285h-0.0046487603305785125L0.15495867768595042,0.9260204081632653H0.12706611570247933l-0.026859504132231406-0.3299336734693878h-0.006198347107438017V0.9260204081632653H0.0371900826446281v-0.8418367346938775h0.07334710743801653l0.029270661157024792,0.3635204081632653h0.0014628099173553718L0.17045454545454544,0.08418367346938775h0.07489669421487603v0.7934897959183673L0.29338842975206614,0.08418367346938775h0.07300206611570248l0.04820867768595041,0.8418367346938775v-0.8418367346938775c0,0,0.04820867768595041,0,0.08195661157024793,0c0.0240702479338843,0.008826530612244898,0.051599173553719006,0.059229591836734694,0.0662706611570248,0.14354591836734695L0.5533739669421488,0.08418367346938775h0.06301652892561983l0.023417355371900827,0.4549336734693878h0.0030991735537190084L0.6701115702479339,0.08418367346938775H0.7241735537190083h0.002066115702479339H0.8388429752066116V0.2687091836734694z M0.9662541322314049,0.9260204081632653h-0.1115702479338843v-0.8418367346938775h0.05991735537190083V0.7551020408163265h0.05165289256198347V0.9260204081632653z"/>
</mask>
</defs>
<polygon fill="#FFFFFF" points="159,82 151,135.5 169.5,135.5 160.5,82 	"/>
<path fill="#FFFFFF" d="M228.5,47v49c0,0,17.5-2,18.5-24.5C247,71.5,249,55.5,228.5,47z"/>
<path fill="#FFFFFF" d="M0,0v196h484V0H0z M406,52.667h-26.333v32L406,85v31h-26v32l26-0.5v34h-55.5V22.971L326,181.5h-31.333L277.348,75.007C275.557,103.994,257,118.5,257,118.5l23,63h-28L233,128h-3.5v53.5h-28.833h-26.333l-3-16.5H147l-3,16.5h-25.25h-1.417H90.5v-64.75h-2.25L75,181.5H61.5l-13-64.667h-3V181.5H18v-165h35.5l14.167,71.25h0.708L82.5,16.5h36.25v155.524L142,16.5h35.333l23.333,165v-165c0,0,23.333,0,39.667,0c11.65,1.73,24.974,11.609,32.075,28.135L267.833,16.5h30.5l11.334,89.167h1.5L324.334,16.5H350.5h1H406V52.667z M467.667,181.5h-54v-165h29V148h25V181.5z"/>
</svg>