<?xml version="1.0" encoding="utf-8"?>
<svg version="1.1" xmlns="http://www.w3.org/2000/svg" preserveAspectRatio="none" viewBox="0 0 484 196" width="100%" height="100%">
<defs>
<mask id="mask" maskUnits="objectBoundingBox" maskContentUnits="objectBoundingBox" x="0" y="0" width="100%" height="100%">
<path d="M0.6446280991735537,0.5382653061224489L0.6167355371900827,0.08673469387755102H0.5557851239669421l0.009297520661157025,0.14540816326530612c0,0-0.01880165289256198-0.12755102040816327-0.06301652892561983-0.14540816326530612c-0.06921487603305786,0-0.0878099173553719,0-0.0878099173553719,0v0.798469387755102L0.36983471074380164,0.08673469387755102h-0.0743801652892562l-0.045454545454545456,0.7448979591836735V0.08673469387755102H0.17148760330578514L0.14256198347107438,0.44642857142857145L0.11260330578512397,0.08673469387755102H0.03925619834710744v0.8418367346938775h0.05578512396694215v-0.336734693877551l0.03512396694214876,0.336734693877551h0.026859504132231406l0.030991735537190084-0.35714285714285715v0.35714285714285715h0.1115702479338843l0.006198347107438017-0.08418367346938775h0.049586776859504134l0.005165289256198347,0.08418367346938775H0.47520661157024796v-0.2729591836734694h0.008264462809917356l0.038223140495867766,0.2729591836734694h0.05785123966942149l-0.045454545454545456-0.32653061224489793c0,0,0.03615702479338843-0.05357142857142857,0.040289256198347105-0.2239795918367347c0.0004132231404958678,0.01683673469387755,0.0371900826446281,0.5505102040816326,0.0371900826446281,0.5505102040816326h0.0640495867768595l0.049586776859504134-0.7959183673469388v0.7959183673469388h0.11570247933884298v-0.17346938775510204h-0.05475206611570248v-0.16326530612244897H0.8409090909090909V0.43112244897959184h-0.05475206611570248v-0.16326530612244897H0.8409090909090909V0.08673469387755102h-0.1725206611570248L0.6446280991735537,0.5382653061224489z M0.3130165289256198,0.6913265306122449l0.018388429752066116-0.2744897959183673l0.018388429752066116,0.2744897959183673H0.3130165289256198z M0.47417355371900827,0.4897959183673469V0.24387755102040815c0.03925619834710744,0.02295918367346939,0.03884297520661157,0.125,0.03925619834710744,0.12295918367346939C0.5109504132231405,0.46938775510204084,0.47417355371900827,0.4897959183673469,0.47417355371900827,0.4897959183673469z" style="fill:#fff;" />
<polygon points="0.9173553719008265,0.7566326530612245 0.9173553719008265,0.08673469387755102 0.8559917355371901,0.08673469387755102 0.8559917355371901,0.9285714285714286 0.96900826446281,0.9285714285714286 0.96900826446281,0.7566326530612245" style="fill:#fff;" />
</mask>
</defs>
<path d="M312,105.5L298.5,17H269l4.5,28.5c0,0-9.1-25-30.5-28.5c-33.5,0-42.5,0-42.5,0v156.5L179,17h-36l-22,146V17H83L69,87.5L54.5,17H19v165h27v-66l17,66h13l15-70v70h54l3-16.5h24l2.5,16.5H230v-53.5h4l18.5,53.5h28l-22-64c0,0,17.5-10.5,19.5-43.9c0.2,3.3,18,107.9,18,107.9h31l24-156v156h56v-34h-26.5v-32H407V84.5h-26.5v-32H407V17h-83.5L312,105.5zM151.5,135.5l8.9-53.8l8.9,53.8H151.5z M229.5,96V47.8c19,4.5,18.8,24.5,19,24.1C247.3,92,229.5,96,229.5,96z" style="fill:#fff;" />
<polygon points="444,148.3 444,17 414.3,17 414.3,182 469,182 469,148.3" style="fill:#fff;" />
</svg>