<?xml version="1.0" encoding="utf-8"?>
<svg version="1.1" xmlns="http://www.w3.org/2000/svg" preserveAspectRatio="none" viewBox="0 0 500 500" width="100%" height="100%">
<defs>
<mask id="mask" maskUnits="objectBoundingBox" maskContentUnits="objectBoundingBox" x="0" y="0" width="100%" height="100%">
<rect x="0.038" y="0.044" fill="#FFFFFF" width="0.19" height="0.147"/>
<path fill="#FFFFFF" d="M0.461,0.167c0,0.013254-0.010746,0.024-0.024,0.024h-0.14c-0.013254,0-0.024-0.010746-0.024-0.024V0.068c0-0.013254,0.010746-0.024,0.024-0.024h0.14c0.013254,0,0.024,0.010746,0.024,0.024V0.167z"/>
<ellipse fill="#FFFFFF" cx="0.609" cy="0.1175" rx="0.098" ry="0.0735"/>
<ellipse fill="#FFFFFF" cx="0.839" cy="0.1175" rx="0.073" ry="0.0735"/>
<polygon fill="#FFFFFF" points="0.085816,0.40172399999999997 0.038634,0.32 0.085816,0.23827600000000002 0.180184,0.23827600000000002 0.227366,0.32 0.180184,0.40172399999999997"/>
<polygon fill="#FFFFFF" points="0.367,0.20208600000000002 0.367044,0.319938 0.479142,0.28356200000000004 0.367074,0.320024 0.436308,0.415394 0.367,0.320078 0.297692,0.415394 0.366926,0.320024 0.25485800000000003,0.28356200000000004 0.366956,0.319938"/>
</mask>
</defs>
<rect x="19" y="22" fill="#FFFFFF" width="95" height="73.5"/>
<path fill="#FFFFFF" d="M230.5,83.5c0,6.627-5.373,12-12,12h-70c-6.627,0-12-5.373-12-12V34c0-6.627,5.373-12,12-12h70c6.627,0,12,5.373,12,12V83.5z"/>
<ellipse fill="#FFFFFF" cx="304.5" cy="58.75" rx="49" ry="36.75"/>
<ellipse fill="#FFFFFF" cx="419.5" cy="58.75" rx="36.5" ry="36.75"/>
<polygon fill="#FFFFFF" points="42.908,200.862 19.317,160 42.908,119.138 90.092,119.138 113.683,160 90.092,200.862 "/>
<polygon fill="#FFFFFF" points="183.5,101.043 183.522,159.969 239.571,141.781 183.537,160.012 218.154,207.697 183.5,160.039 148.846,207.697 183.463,160.012 127.429,141.781 183.478,159.969 "/>
<line fill="none" stroke="#000000" stroke-miterlimit="10" x1="314.5" y1="115.5" x2="314.5" y2="200.862"/>
<path fill="none" stroke="#000000" stroke-miterlimit="10" d="M430.5,122c0,47.368-17.443,85.697-39,85.697"/>
</svg>