<?xml version="1.0" encoding="utf-8"?>
<svg version="1.1" xmlns="http://www.w3.org/2000/svg" preserveAspectRatio="none" viewBox="0 0 170 170" width="100%" height="100%">
<defs>
<mask id="mask" maskUnits="objectBoundingBox" maskContentUnits="objectBoundingBox" x="0" y="0" width="100%" height="100%">
<circle opacity="0.75" fill="#FFFFFF" cx="0.5058823529411764" cy="0.5107529411764706" r="0.47058823529411764"/>
<path fill="#FFFFFF" d="M0.6057823529411765,0.4860941176470588l0.1603764705882353,0.32318823529411767c0.024300000000000002-0.02064705882352941,0.046088235294117645-0.04413529411764706,0.06487058823529412-0.06997058823529412L0.6804588235294118,0.4412941176470588L0.6057823529411765,0.4860941176470588z"/>
<path fill="#FFFFFF" d="M0.8670588235294118,0.3293470588235294l-0.06131176470588235,0.036782352941176474l0.0981235294117647,0.1903c0.0022176470588235295-0.017035294117647058,0.0034823529411764703-0.03437647058823529,0.0034823529411764703-0.05201764705882353C0.9073529411764706,0.44161764705882356,0.8928470588235293,0.3822294117647059,0.8670588235294118,0.3293470588235294z"/>
<path fill="#FFFFFF" d="M0.7108058823529412,0.42308823529411765l0.14249411764705883,0.28202941176470586c0.016876470588235295-0.02902352941176471,0.030188235294117644-0.06034117647058823,0.03937647058823529-0.09340588235294117l-0.11725294117647059-0.22738823529411764L0.7108058823529412,0.42308823529411765z"/>
<path fill="#FFFFFF" d="M0.3317058823529412,0.4402529411764706l-0.1498235294117647,0.29654117647058825c0.01863529411764706,0.02605294117647059,0.04030588235294118,0.04976470588235295,0.0645235294117647,0.07063529411764706l0.15974117647058822-0.32190588235294115L0.3317058823529412,0.4402529411764706z"/>
<path fill="#FFFFFF" d="M0.5057588235294117,0.5461058823529411L0.43641176470588233,0.503929411764706l-0.16166470588235293,0.32578823529411766c0.06555294117647059,0.046952941176470586,0.1458235294117647,0.07468823529411764,0.23260588235294116,0.07468823529411764c0.08578823529411765,0,0.16520588235294117-0.027100000000000003,0.23034117647058824-0.07308235294117647L0.5754176470588235,0.5043117647058823L0.5057588235294117,0.5461058823529411z"/>
<path fill="#FFFFFF" d="M0.23705882352941174,0.38269411764705885L0.12094117647058823,0.6078823529411765c0.008923529411764705,0.0334,0.022088235294117648,0.06504705882352942,0.03883529411764706,0.09439999999999998l0.14168235294117645-0.2804235294117647L0.23705882352941174,0.38269411764705885z"/>
<path fill="#FFFFFF" d="M0.14804705882352942,0.3285529411764706c-0.02602941176470588,0.05308235294117646-0.040694117647058825,0.11274705882352942-0.040694117647058825,0.17585882352941176c0,0.015994117647058822,0.0010470588235294118,0.03174117647058824,0.0028705882352941174,0.04724117647058824l0.0966-0.18735294117647058L0.14804705882352942,0.3285529411764706z"/>
<path fill="#FFFFFF" d="M0.8501941176470588,0.2983058823529412c-0.023429411764705883-0.03889411764705882-0.05331764705882353-0.07344705882352942-0.08813529411764706-0.10224705882352943L0.7588235294117647,0.19804117647058825L0.6078470588235294,0.29411764705882354c0,0-0.019611764705882353-0.03529411764705882-0.06667058823529412-0.13333529411764708c0.0058823529411764705-0.015688235294117645,0.058823529411764705,0.001958823529411765,0.058823529411764705,0.001958823529411765L0.5764705882352941,0.11764705882352941H0.45294117647058824l-0.052941176470588235,0.17647058823529413L0.2647058823529412,0.20195882352941175l-0.009805882352941176-0.0058823529411764705l-0.0013352941176470589-0.0008058823529411766c-0.03499411764705882,0.02876470588235294-0.06504117647058824,0.06332352941176471-0.08861176470588235,0.10225294117647059L0.5058823529411764,0.5048705882352942L0.8501941176470588,0.2983058823529412z"/>
<path fill="#FFFFFF" d="M0.5058823529411764,0.9822882352941177c-0.2611058823529412,0-0.47352941176470587-0.2124235294117647-0.47352941176470587-0.47352941176470587s0.2124235294117647-0.47352941176470587,0.47352941176470587-0.47352941176470587s0.47352941176470587,0.2124235294117647,0.47352941176470587,0.47352941176470587S0.7669882352941176,0.9822882352941177,0.5058823529411764,0.9822882352941177z M0.5058823529411764,0.06464117647058824c-0.24488823529411766,0-0.4441176470588235,0.19922941176470588-0.4441176470588235,0.4441176470588235s0.19922941176470588,0.4441176470588235,0.4441176470588235,0.4441176470588235s0.4441176470588235-0.19922941176470588,0.4441176470588235-0.4441176470588235S0.7507705882352941,0.06464117647058824,0.5058823529411764,0.06464117647058824z"/>
</mask>
</defs>
<circle opacity="0.75" fill="#FFFFFF" cx="86" cy="86.828" r="80"/>
<path fill="#FFFFFF" d="M102.983,82.636l27.264,54.942c4.131-3.51,7.835-7.503,11.028-11.895L115.678,75.02L102.983,82.636z"/>
<path fill="#FFFFFF" d="M147.4,55.989l-10.423,6.253l16.681,32.351c0.377-2.896,0.592-5.844,0.592-8.843C154.25,75.075,151.784,64.979,147.4,55.989z"/>
<path fill="#FFFFFF" d="M120.837,71.925l24.224,47.945c2.869-4.934,5.132-10.258,6.694-15.879l-19.933-38.656L120.837,71.925z"/>
<path fill="#FFFFFF" d="M56.39,74.843l-25.47,50.412c3.168,4.429,6.852,8.46,10.969,12.008l27.156-54.724L56.39,74.843z"/>
<path fill="#FFFFFF" d="M85.979,92.838L74.19,85.668l-27.483,55.384c11.144,7.982,24.79,12.697,39.543,12.697c14.584,0,28.085-4.607,39.158-12.424L97.821,85.733L85.979,92.838z"/>
<path fill="#FFFFFF" d="M40.3,65.058L20.56,103.34c1.517,5.678,3.755,11.058,6.602,16.048l24.086-47.672L40.3,65.058z"/>
<path fill="#FFFFFF" d="M25.168,55.854c-4.425,9.024-6.918,19.167-6.918,29.896c0,2.719,0.178,5.396,0.488,8.031l16.422-31.85L25.168,55.854z"/>
<path fill="#FFFFFF" d="M144.533,50.712c-3.983-6.612-9.064-12.486-14.983-17.382L129,33.667L103.334,50c0,0-3.334-6-11.334-22.667c1-2.667,10,0.333,10,0.333L98,20H77l-9,30L45,34.333l-1.667-1l-0.227-0.137c-5.949,4.89-11.057,10.765-15.064,17.383L86,85.828L144.533,50.712z"/>
<path fill="#FFFFFF" d="M86,166.989c-44.388,0-80.5-36.112-80.5-80.5s36.112-80.5,80.5-80.5s80.5,36.112,80.5,80.5S130.388,166.989,86,166.989z M86,10.989c-41.631,0-75.5,33.869-75.5,75.5s33.869,75.5,75.5,75.5s75.5-33.869,75.5-75.5S127.631,10.989,86,10.989z"/>
</svg>