<?xml version="1.0" encoding="utf-8"?>
<!-- Generator: Adobe Illustrator 16.0.0, SVG Export Plug-In . SVG Version: 6.00 Build 0)  -->
<!DOCTYPE svg PUBLIC "-//W3C//DTD SVG 1.1//EN" "http://www.w3.org/Graphics/SVG/1.1/DTD/svg11.dtd">
<svg version="1.1" xmlns="http://www.w3.org/2000/svg" xmlns:xlink="http://www.w3.org/1999/xlink" x="0px" y="0px" width="225px"
	 height="380px" viewBox="0 0 225 380" enable-background="new 0 0 225 380" xml:space="preserve">
<g id="fist">
	<path opacity="0.7" fill="#FFFFFF" d="M54.68,380c0,0,7.576-108.172,0-147.061c0,2.021-31.313-23.232-27.273-58.586
		c-0.505,0.505-4.041-28.283-10.101-45.455c-5.556-6.061-9.596-8.586-9.596-8.586L5.327,118c0,0,17.721-24,26.36-29
		c-4.36-7.333-2.36-6-2.36-6l37-28.333l-4-6l37.667-25.333L103.66,27l33.333-20c0,0,27,27.333,32.667,43l4.667-3l45.666,71.333
		c0,0,3.666,6.333-2,14.333S156.66,223,156.66,223l33,157H54.68z"/>
</g>
<g id="fist_line">
	<path fill="#FFFFFF" d="M223.022,116.58l-47.639-74.42l-4.161,2.675C163.109,28.558,140.52,5.59,139.483,4.541l-1.933-1.957
		l-33.348,20.009l-3.772-3.771l-42.95,28.886l4.115,6.173L28.097,79.533c-0.933,0.253-1.744,0.867-2.231,1.725
		c-0.946,1.663-0.568,3.416,1.205,6.715c-9.268,7.401-22.884,25.679-24.559,27.947l-1.817,2.461l4.847,4.7l0.304,0.193
		c0.036,0.022,3.543,2.273,8.395,7.465c4.004,11.679,6.881,28.584,8.439,37.748c0.341,2.006,0.62,3.642,0.833,4.776
		c0.083,0.442,0.181,0.959,0.331,1.486c-2.562,25.476,12.294,45.209,18.854,52.56c1.842,2.064,5.691,6.16,8.882,8.132
		c6.836,39.481-0.318,143.255-0.393,144.315l-0.262,3.744h7.028l0.67-10.168l0,0c1.541-24.679,6.042-107.438-0.508-141.062
		c0,0-30.784-26.438-27.231-57.52l-1.316-7.509c-1.627-9.565-4.646-27.28-8.962-39.508l-0.238-0.673l-0.482-0.527
		c-4.845-5.286-8.661-8.067-9.899-8.911c5.871-7.707,17.593-22.202,23.453-25.594l3.065-1.774l-1.81-3.044
		c-0.7-1.177-1.196-2.066-1.546-2.73l37.908-29.029l-3.885-5.827l32.383-21.78l3.562,3.562l33.291-19.975
		c6.172,6.472,25.466,27.331,29.961,39.758l1.492,4.126l5.408-3.477l43.697,68.257c0.284,0.58,2.165,4.906-1.83,10.546
		c-5.623,7.94-59.103,87.033-61.376,90.396l-0.831,1.229L185.348,376.5l1.698,7h6.927l-33.582-159.769
		c6.965-10.299,55.257-81.697,60.459-89.042C227.734,124.968,223.218,116.918,223.022,116.58z"/>
</g>
<g id="Layer_4">
	<path fill="#FFFFFF" d="M66.66,49.667L98.66,32l26,33.667l-22,8c0,0-7.333,0.667-7,16C96.993,95,97.993,99,97.993,99l2.667,4.333
		l3.333-1.667c0,0-5.334-24,11.5-26c30.834-11,60.5-22,60.5-22l-7.747-6.96L130.66,65l-21.667-37.667L101.66,25
		C101.66,25,68.589,43.444,66.66,49.667z"/>
	<path fill="#FFFFFF" d="M66.66,45.752c0,0,38.001,68.249,52.667,82.582C114.66,130,108.993,130,108.993,130L64.327,59l-2-10.333
		L66.66,45.752z"/>
	<path fill="#FFFFFF" d="M33.927,79.478c0,0,16.733,25.855,46.733,62.189c-0.333-0.333-7,5.667-7,5.667L29.779,90.296l2.881-10.819
		H33.927z"/>
	<path fill="#FFFFFF" d="M9.66,116.333c0,0,34.119,29,45.56,44.667c0.44,0,21.441-30,68.107-32.667c11-2,17.333-5.667,17.333-5.667
		s13.333-4.667,30.333-2c-0.666,0-12,3.667-12,3.667l-15.333,4c0,0-38.334,4-66.667,22.333c-15,11-20.333,18.667-20.333,18.667
		L21.327,135L9.66,116.333z"/>
	<path fill="#FFFFFF" d="M136.327,127.667l-60,88.667L86.993,219l0.667,3c0,0,6.667,73.667,2.667,148.667
		c-0.333-0.333,5.333-108.333,2-153c21.333-2.666,21.333-2.666,21.333-2.666l-26-6.667c0,0,44.666-70.668,57.666-80.667
		C143.66,128.333,136.327,127.667,136.327,127.667z"/>
	<path fill="#FFFFFF" d="M190.326,149.667l-8-2.333l-7.666-4.5l-3.667-2.5c0,0-9.666-6.668-10.333-10.334
		c0.333,3.667,0,5.334,0,5.334L146.993,130c0,0,7.136,8.29,16.333,9.833c4,1.5,8.667,8.833,12.667,13.167
		C181.66,153.334,189.992,154,190.326,149.667z"/>
	<path fill="#FFFFFF" d="M156.66,93c0,0-11.666,15.333-17,18c0.666,0.667-2,0-2,0s-26.333-3.835-35.667-12.333
		c-4.667,5.333,0,8.667,0,8.667l2.408,1.283c0,0,34.592,11.227,42.592,12.472c6,1.245,9.667,0,9.667,0l-4-4.755L150.243,115
		l3.5-1.595l-3-6.084l1.25-2.571C151.993,104.75,156.077,95.251,156.66,93z"/>
</g>
</svg>
