<?xml version="1.0" encoding="utf-8"?>
<!-- Generator: Adobe Illustrator 16.0.0, SVG Export Plug-In . SVG Version: 6.00 Build 0)  -->
<!DOCTYPE svg PUBLIC "-//W3C//DTD SVG 1.1//EN" "http://www.w3.org/Graphics/SVG/1.1/DTD/svg11.dtd">
<svg version="1.1" xmlns="http://www.w3.org/2000/svg" xmlns:xlink="http://www.w3.org/1999/xlink" x="0px" y="0px" width="170px"
	 height="170px" viewBox="0 0 170 170" enable-background="new 0 0 170 170" xml:space="preserve">
<g id="circle">
	<circle opacity="0.75" fill="#FFFFFF" cx="86" cy="86.828" r="80"/>
</g>
<g id="loop">
	<g>
		<path fill="#FFFFFF" d="M86,166.989c-44.388,0-80.5-36.112-80.5-80.5s36.112-80.5,80.5-80.5s80.5,36.112,80.5,80.5
			S130.388,166.989,86,166.989z M86,10.989c-41.631,0-75.5,33.869-75.5,75.5s33.869,75.5,75.5,75.5s75.5-33.869,75.5-75.5
			S127.631,10.989,86,10.989z"/>
	</g>
</g>
<g id="hydra">
	<g>
		<path fill="#FFFFFF" d="M87.883,84.387c1.292-0.188,1.622-0.568,1.679-0.884c0.056-0.443-0.323-2.592-0.323-2.592
			s0.505,2.445,1.475,2.403c0.969-0.042,2.486-0.337,2.612-1.349c-0.421-1.18-0.504-1.728-0.504-1.728s0.673,0.801,0.885,1.348
			c0.042-0.084,0.885,1.012,1.98,0c0.55-0.336,0.55-0.336,0.55-0.336s-0.086-0.97,0.251-0.97c0.084,0,0.381,0.506,0.59,0.084
			c0.212-0.421,0.295-0.758,0.295-0.758s1.055-1.138,0-2.951c-0.42-0.97-0.42-0.97-0.42-0.97l0.167-0.21l-0.042-1.264l1.771,0.126
			c0,0,3.983,0.633,4.995-0.189c-0.064,0,1.768,0.632,2.148-0.379c0-0.127,0.506-0.127,0.759-1.013
			c0.316-0.441,0.316-0.441,0.316-0.441s0.885-1.076,0-3.541c-0.063-0.063,1.517,0.632,1.707-1.96
			c0.125-2.53-2.213-3.667-2.023-4.806c0.065-1.77,0.2-3.711,2.027-7.482c1.704-5.857,3.98-18.756-2.596-24.193
			c-6.576-5.438-12.709-5.754-19.979-5.69c-7.271-0.064-13.404,0.252-19.979,5.69c-6.575,5.437-4.299,18.335-2.597,24.193
			c1.828,3.771,1.965,5.712,2.028,7.482c0.19,1.138-2.149,2.276-2.022,4.806c0.189,2.592,1.77,1.897,1.707,1.96
			c-0.885,2.465,0,3.541,0,3.541s0,0,0.316,0.441c0.253,0.886,0.759,0.886,0.759,1.013c0.379,1.011,2.212,0.379,2.15,0.379
			c1.012,0.822,4.994,0.189,4.994,0.189l1.771-0.126l-0.042,1.264l0.169,0.21c0,0,0,0-0.422,0.97c-1.054,1.813,0,2.951,0,2.951
			s0.084,0.337,0.295,0.758c0.211,0.422,0.506-0.084,0.59-0.084c0.337,0,0.253,0.97,0.253,0.97s0,0,0.547,0.336
			c1.097,1.012,1.94-0.084,1.981,0c0.211-0.547,0.886-1.348,0.886-1.348s-0.084,0.548-0.506,1.728
			c0.126,1.012,1.644,1.307,2.614,1.349c0.969,0.042,1.475-2.403,1.475-2.403s-0.379,2.149-0.324,2.592
			c0.056,0.316,0.387,0.696,1.679,0.884c1.482,0.191,1.237-1.137,1.3-1.137c0.064-2.402,0.38-2.922,0.38-2.922
			s0.315,0.52,0.379,2.922C86.646,83.25,86.4,84.578,87.883,84.387z M98.395,57.685c3.339,0.254,4.5,3.288,4.247,5.902
			c-0.843,1.685-1.35,2.107-4.721,2.107c-4.046,0.421-7.924-3.373-7.924-3.373C90.924,62.321,94.802,57.939,98.395,57.685z
			 M74.485,65.694c-3.373,0-3.878-0.422-4.721-2.107c-0.253-2.614,0.908-5.647,4.248-5.902c3.592,0.254,7.471,4.636,8.398,4.636
			C82.41,62.321,78.531,66.116,74.485,65.694z M82.916,71.258c0-1.687,3.288-6.744,3.288-6.744s3.288,5.058,3.288,6.744
			c0-0.169,0.842,3.372-3.288,1.518C82.072,74.63,82.916,71.089,82.916,71.258z"/>
		<path fill="#FFFFFF" d="M143.78,81.121c-0.084,0-2.951-1.095-5.144-0.337c0,0-0.42,0.56-1.431-0.269
			c-1.603-0.322-5.313-0.266-7.842,0c0.17,0.1-2.865-0.997-4.298,0.69c0.167,0.084-0.76,1.348-2.698-0.169
			c-1.519-0.759-3.541-0.843-4.554,1.18c-0.168,0-0.419,1.939-2.949,0.422c0,0-2.866-1.603-3.456,0.927
			c0.084,0-1.771,4.636-4.3,2.275c-0.17-0.169-1.011-1.18-2.276,0.085c0,0-1.771,0.675-1.519,2.106c0-0.083-1.094,0.085-1.094,0.085
			s-1.324,0.723-3.826-1.687c-1.57-1.602-1.57-1.602-1.57-1.602s-2.108-2.866-5.563,0c-3.119,2.275-2.866,2.023-2.866,2.023
			s-2.697,1.517-0.59,3.203c2.696,1.602,10.116,6.323,12.224,7.586c0.084,0.086,4.973,2.108,9.693,0
			c5.396-3.116,17.873-10.199,24.196-7.586c2.949,1.435,5.142,3.878,5.142,3.878l5.058,5.479c0,0,1.433,1.434,0,2.023
			c-1.096,1.517-0.674,3.204,1.096,4.721c-0.084,0,0.676,2.277-1.01,3.204c-0.17,0-0.929,0-0.929,0s-4.132-0.169-1.687,4.215
			c-0.083,0.084,1.939,2.529-1.77,2.19c-1.435-0.674-3.794-1.348-3.962,0.845c-0.508,0.927-1.518,1.854-1.854,0.422
			c-1.182-2.193-4.301-3.12-4.891-0.169c0.086,0-1.349,2.445-2.022-0.676c-0.674-3.109-2.52-4.039-5.202-1.872
			c0.083-0.112,0.187-0.799-0.278-1.416c0.086,0-0.759-1.854,0.339-2.275c0.168-2.359-0.253-2.949-1.182-2.698
			c0,0.086-1.18-0.168-1.855-1.096c0.253-0.758,0.676-0.758,0.676-0.758s1.854-1.29,0.674-5.409c-1.77-3.526-1.77-3.526-1.77-3.526
			s-0.114,3.709-2.335,4.215c-0.108,0-0.9,1.18,0,2.108c0.057,0.167-1.206,0.59-0.7,1.349c-0.084,0-1.097,0.337-0.253,1.854
			c0.929,2.782,3.794,12.561,7.419,18.294c-0.17,0.084,2.19,5.479,6.069,5.563c3.709,0.337,4.383,0.423,4.383,0.423
			s2.53,0.337,3.543-0.592c1.011-0.927,10.029-12.392,10.029-12.392s6.407-9.78,6.237-21.581
			C152.716,84.578,151.452,85.083,143.78,81.121z"/>
		<path fill="#FFFFFF" d="M113.433,108.687c-0.17-0.251-0.592-2.612-3.205-2.528c-0.081-0.084-1.18,0.169-1.349-1.855
			c-0.168-1.517-1.685-1.854-3.456-1.264c-0.083,0-2.781,0.76-4.298-1.771c-1.013-1.854-2.276-2.359-4.554-1.686
			c-0.169-0.168-2.612,0.422-4.131-3.119c-0.927-2.528-1.524-3.708-5.44-5.058v13.15c0,0,0.129,0.63,1.564,1.073
			c1.095,1.458,1.433,1.962,1.433,1.962s0.843,1.855,3.625,2.108c3.455,0.504,7.25,0.504,12.477,4.552
			c3.454,4.215,6.66,8.685,6.66,8.685s0.927,1.094,0,2.275c0.082,0.167-0.694,2.782,0.409,3.876c-0.072-0.084-3.53,1.096-2.94,3.625
			c-0.167-0.084,0.76,3.541-2.865,2.53c-0.59-0.506-2.19-1.499-2.108,0.178c0.169-0.01-0.084,5.05-1.431,4.037
			c-0.086-0.085-1.771-1.012-1.771-1.012s-2.361-2.445-3.456-0.251c-0.592,0.081-2.108,1.768-2.277,0.336
			c-0.082,0,0.337-1.096,0.337-1.096s1.94-2.361-3.033-1.855c-0.17,0.168-3.289,1.097-2.361-1.433c0.59-1.603,0.59-1.603,0.59-1.603
			s1.349-2.444-1.35-2.697c-0.251-0.252-2.359,0.506-1.01-2.023c0.759-0.759,1.264-1.096,1.264-1.096s1.517-0.843,0.169-2.951
			c0-0.084-0.506-0.674-0.506-0.674s1.181-1.686,2.361-2.865c0.759-1.013,1.433-1.939,0.927-3.374
			c-0.507-1.433-1.435-1.854-3.119-0.337c-1.603,1.435-4.308,2.868-3.587,6.999c0.047,3.876-0.121,6.131-0.121,6.131
			s-0.852,9.293,0.121,13.783c-0.039,0.188,0.974,3.352,3.313,4.108c2.276,1.14,3.226,1.456,3.226,1.456s6.49,3.813,11.295,0
			c4.805-3.815,6.828-5.417,6.828-5.417s5.183-4.72,8.282-6.744c2.425-1.519,3.015-5.898,1.159-10.284
			C119.249,122.174,116.637,114.251,113.433,108.687z"/>
		<path fill="#FFFFFF" d="M147.405,50.352c-4.384-5.395-17.788-3.625-19.558-2.614c-0.085,0.084-1.435,0.169-1.435,0.169
			l-1.18,0.084c0,0-2.527-0.928-2.696,1.602c-0.253,1.011-1.603,1.517-3.964,2.275c-1.517,0.422-3.034,0.843-2.106,3.12
			c0.17,1.012,1.095,2.023-1.18,2.529c-2.277,0.506-4.131,2.529-2.528,5.985c-0.086-0.084,2.696,2.276,0.59,2.951
			c-0.59-0.252-2.361-0.927-2.276,1.433c0.084,1.77,0.758,3.035,0.589,4.468c-0.505,1.517-2.485,4.932-8.6,4.131
			c0,0-2.696-1.265-2.863,1.349c0.082,1.686-0.255,1.391-0.929,2.424c-0.674,1.032-3.184,3.309-0.875,3.394
			c2.897,0.252,10.484,1.432,19.083-5.313c5.06-4.298,5.229-9.61,6.07-11.633c0.843-2.95,2.361-14.837,11.971-13.994
			c4.215,0.422,5.563,1.686,7.417,3.962c0-0.083,0.508,0.759,0.508,0.759s-0.506,2.022,1.603,1.517
			c0.504-0.337,1.854,1.096,0.759,1.77c-0.508,0.758-0.508,0.758-0.508,0.758s-2.361,1.687,0.169,2.613
			c1.013,0.506,1.77,2.361-0.673,2.529c-1.182-0.252-2.025,0.506-1.519,2.782c0.673,0.591,0.673,0.591,0.673,0.591l-0.42,0.506
			c0,0-0.337,0.589-0.674,1.18c0.082-0.085-1.686-0.253-1.686-0.253s-2.108-1.264-2.108,0.675c-0.086,0.168-1.013,1.601-1.77-0.338
			c-0.17-1.349-1.855-0.843-3.288-0.083c-1.097,0.337-2.361-0.422-2.951-1.266c-0.59-0.843-1.013-1.517-1.013-1.517
			s-0.927-1.77-2.275-0.084c0-0.168-0.927,0.338,0.085,2.698c1.011,2.359,3.623,6.069,12.981,6.912
			c7.84-0.168,11.128,0.085,13.236-9.188C154.738,62.407,152.293,56.084,147.405,50.352z"/>
		<path fill="#FFFFFF" d="M57.203,106.664c0.843-1.517-0.168-1.854-0.252-1.854c0.506-0.759-0.758-1.182-0.701-1.349
			c0.901-0.929,0.111-2.108,0-2.108c-2.218-0.506-2.334-4.215-2.334-4.215s0,0-1.77,3.526c-1.18,4.119,0.674,5.409,0.674,5.409
			s0.421,0,0.675,0.758c-0.675,0.928-1.855,1.182-1.855,1.096c-0.927-0.251-1.349,0.339-1.18,2.698
			c1.096,0.422,0.253,2.275,0.337,2.275c-0.462,0.617-0.361,1.304-0.276,1.416c-2.685-2.167-4.53-1.237-5.204,1.872
			c-0.674,3.121-2.107,0.676-2.023,0.676c-0.59-2.951-3.709-2.024-4.889,0.169c-0.337,1.432-1.349,0.505-1.855-0.422
			c-0.168-2.192-2.528-1.519-3.961-0.845c-3.709,0.339-1.687-2.106-1.771-2.19c2.445-4.384-1.686-4.215-1.686-4.215
			s-0.758,0-0.927,0c-1.687-0.927-0.928-3.204-1.012-3.204c1.77-1.517,2.192-3.204,1.095-4.721c-1.432-0.59,0-2.023,0-2.023
			l5.059-5.479c0,0,2.191-2.443,5.142-3.878c6.322-2.613,18.798,4.47,24.194,7.586c4.721,2.108,9.61,0.086,9.695,0
			c2.107-1.263,9.525-5.984,12.223-7.586c2.107-1.687-0.59-3.203-0.59-3.203s0.253,0.252-2.866-2.023c-3.457-2.866-5.564,0-5.564,0
			s0,0-1.569,1.602c-2.503,2.409-3.826,1.687-3.826,1.687s-1.096-0.168-1.096-0.085c0.253-1.432-1.517-2.106-1.517-2.106
			c-1.265-1.265-2.108-0.254-2.276-0.085c-2.529,2.36-4.383-2.275-4.3-2.275c-0.59-2.529-3.456-0.927-3.456-0.927
			c-2.529,1.517-2.782-0.422-2.951-0.422c-1.011-2.023-3.034-1.939-4.551-1.18c-1.939,1.517-2.867,0.253-2.698,0.169
			c-1.433-1.687-4.468-0.59-4.299-0.69c-2.529-0.266-6.238-0.322-7.84,0c-1.011,0.828-1.433,0.269-1.433,0.269
			c-2.192-0.758-5.058,0.337-5.143,0.337c-7.671,3.962-8.936,3.457-9.104,15.259c-0.168,11.801,6.238,21.581,6.238,21.581
			s9.02,11.465,10.031,12.392c1.012,0.929,3.541,0.592,3.541,0.592s0.674-0.086,4.384-0.423c3.877-0.085,6.237-5.479,6.069-5.563
			C53.41,119.225,56.276,109.446,57.203,106.664z"/>
		<path fill="#FFFFFF" d="M85.526,129.656c0,0-0.167-2.255-0.121-6.131c0.72-4.131-1.985-5.564-3.586-6.999
			c-1.686-1.517-2.614-1.096-3.12,0.337c-0.506,1.435,0.169,2.361,0.928,3.374c1.18,1.18,2.36,2.865,2.36,2.865
			s-0.505,0.59-0.505,0.674c-1.349,2.108,0.168,2.951,0.168,2.951s0.505,0.337,1.265,1.096c1.349,2.529-0.759,1.771-1.012,2.023
			c-2.698,0.253-1.349,2.697-1.349,2.697s0,0,0.591,1.603c0.927,2.529-2.192,1.601-2.361,1.433
			c-4.974-0.506-3.035,1.855-3.035,1.855s0.422,1.096,0.337,1.096c-0.168,1.432-1.686-0.255-2.275-0.336
			c-1.096-2.194-3.457,0.251-3.457,0.251s-1.686,0.927-1.77,1.012c-1.349,1.013-1.603-4.047-1.434-4.037
			c0.085-1.677-1.518-0.684-2.107-0.178c-3.625,1.011-2.698-2.614-2.867-2.53c0.591-2.529-2.865-3.709-2.94-3.625
			c1.106-1.094,0.328-3.709,0.412-3.876c-0.927-1.182,0-2.275,0-2.275s3.203-4.47,6.659-8.685c5.228-4.048,9.021-4.048,12.477-4.552
			c2.782-0.253,3.625-2.108,3.625-2.108s0.337-0.504,1.432-1.962c1.435-0.443,1.564-1.073,1.564-1.073v-13.15
			c-3.916,1.35-4.514,2.529-5.441,5.058c-1.518,3.541-3.962,2.951-4.13,3.119c-2.277-0.674-3.541-0.168-4.553,1.686
			c-1.517,2.531-4.214,1.771-4.299,1.771c-1.77-0.59-3.288-0.253-3.456,1.264c-0.168,2.024-1.264,1.771-1.349,1.855
			c-2.613-0.084-3.034,2.277-3.203,2.528c-3.204,5.564-5.817,13.487-7.672,17.872c-1.854,4.386-1.264,8.766,1.16,10.284
			c3.099,2.024,8.282,6.744,8.282,6.744s2.023,1.602,6.829,5.417c4.805,3.813,11.296,0,11.296,0s0.949-0.316,3.225-1.456
			c2.339-0.757,3.352-3.92,3.313-4.108C86.379,138.949,85.526,129.656,85.526,129.656z"/>
		<path fill="#FFFFFF" d="M31.576,78.423c9.358-0.843,11.971-4.552,12.983-6.912c1.012-2.36,0.084-2.867,0.084-2.698
			c-1.349-1.686-2.276,0.084-2.276,0.084s-0.421,0.674-1.012,1.517c-0.589,0.844-1.855,1.603-2.95,1.266
			c-1.433-0.759-3.119-1.266-3.288,0.083c-0.759,1.939-1.687,0.506-1.77,0.338c0-1.939-2.108-0.675-2.108-0.675
			s-1.771,0.168-1.686,0.253c-0.337-0.591-0.675-1.18-0.675-1.18l-0.422-0.506c0,0,0,0,0.674-0.591
			c0.506-2.276-0.337-3.034-1.518-2.782c-2.445-0.168-1.686-2.023-0.674-2.529c2.529-0.926,0.168-2.613,0.168-2.613s0,0-0.505-0.758
			c-1.096-0.674,0.253-2.107,0.759-1.77c2.107,0.505,1.602-1.517,1.602-1.517s0.506-0.843,0.506-0.759
			c1.855-2.277,3.204-3.54,7.418-3.962c9.61-0.843,11.127,11.044,11.971,13.994c0.843,2.023,1.012,7.334,6.069,11.633
			c8.599,6.745,16.186,5.565,19.084,5.313c2.308-0.084-0.201-2.362-0.875-3.394c-0.674-1.033-1.012-0.738-0.927-2.424
			c-0.168-2.613-2.866-1.349-2.866-1.349c-6.112,0.801-8.093-2.614-8.599-4.131c-0.169-1.433,0.506-2.698,0.589-4.468
			c0.085-2.36-1.685-1.686-2.276-1.433c-2.107-0.675,0.675-3.035,0.591-2.951c1.602-3.456-0.253-5.479-2.529-5.985
			c-2.275-0.506-1.349-1.517-1.18-2.529c0.927-2.276-0.59-2.697-2.107-3.12c-2.36-0.758-3.709-1.264-3.962-2.275
			c-0.168-2.53-2.698-1.602-2.698-1.602l-1.18-0.084c0,0-1.349-0.085-1.433-0.169c-1.77-1.011-15.174-2.781-19.558,2.614
			c-4.889,5.732-7.333,12.056-6.66,18.883C20.449,78.508,23.737,78.255,31.576,78.423z"/>
	</g>
</g>
</svg>
