<?xml version="1.0" encoding="utf-8"?>
<!-- Generator: Adobe Illustrator 16.0.0, SVG Export Plug-In . SVG Version: 6.00 Build 0)  -->
<!DOCTYPE svg PUBLIC "-//W3C//DTD SVG 1.1//EN" "http://www.w3.org/Graphics/SVG/1.1/DTD/svg11.dtd">
<svg version="1.1" id="MARVEL" xmlns="http://www.w3.org/2000/svg" xmlns:xlink="http://www.w3.org/1999/xlink" x="0px" y="0px"
	 width="484px" height="196px" viewBox="0 0 484 196" enable-background="new 0 0 484 196" xml:space="preserve">
<g>
	<polygon fill="#FFFFFF" points="159,82 151,135.5 169.5,135.5 160.5,82 	"/>
	<path fill="#FFFFFF" d="M228.5,47v49c0,0,17.5-2,18.5-24.5C247,71.5,249,55.5,228.5,47z"/>
	<path fill="#FFFFFF" d="M0,0v196h484V0H0z M406,52.667h-26.333v32L406,85v31h-26v32l26-0.5v34h-55.5V22.971L326,181.5h-31.333
		L277.348,75.007C275.557,103.994,257,118.5,257,118.5l23,63h-28L233,128h-3.5v53.5h-28.833h-26.333l-3-16.5H147l-3,16.5h-25.25
		h-1.417H90.5v-64.75h-2.25L75,181.5H61.5l-13-64.667h-3V181.5H18v-165h35.5l14.167,71.25h0.708L82.5,16.5h36.25v155.524L142,16.5
		h35.333l23.333,165v-165c0,0,23.333,0,39.667,0c11.65,1.73,24.974,11.609,32.075,28.135L267.833,16.5h30.5l11.334,89.167h1.5
		L324.334,16.5H350.5h1H406V52.667z M467.667,181.5h-54v-165h29V148h25V181.5z"/>
</g>
</svg>
