<?xml version="1.0" encoding="utf-8"?>
<!-- Generator: Adobe Illustrator 16.0.0, SVG Export Plug-In . SVG Version: 6.00 Build 0)  -->
<!DOCTYPE svg PUBLIC "-//W3C//DTD SVG 1.1//EN" "http://www.w3.org/Graphics/SVG/1.1/DTD/svg11.dtd">
<svg version="1.1" id="Layer_1" xmlns="http://www.w3.org/2000/svg" xmlns:xlink="http://www.w3.org/1999/xlink" x="0px" y="0px"
	 width="500px" height="500px" viewBox="0 0 500 500" enable-background="new 0 0 500 500" xml:space="preserve">
<rect x="19" y="22" fill="#FFFFFF" width="95" height="73.5"/>
<path fill="#FFFFFF" d="M230.5,83.5c0,6.627-5.373,12-12,12h-70c-6.627,0-12-5.373-12-12V34c0-6.627,5.373-12,12-12h70
	c6.627,0,12,5.373,12,12V83.5z"/>
<ellipse fill="#FFFFFF" cx="304.5" cy="58.75" rx="49" ry="36.75"/>
<ellipse fill="#FFFFFF" cx="419.5" cy="58.75" rx="36.5" ry="36.75"/>
<polygon fill="#FFFFFF" points="42.908,200.862 19.317,160 42.908,119.138 90.092,119.138 113.683,160 90.092,200.862 "/>
<polygon fill="#FFFFFF" points="183.5,101.043 183.522,159.969 239.571,141.781 183.537,160.012 218.154,207.697 183.5,160.039 
	148.846,207.697 183.463,160.012 127.429,141.781 183.478,159.969 "/>
<line fill="none" stroke="#000000" stroke-miterlimit="10" x1="314.5" y1="115.5" x2="314.5" y2="200.862"/>
<path fill="none" stroke="#000000" stroke-miterlimit="10" d="M430.5,122c0,47.368-17.443,85.697-39,85.697"/>
</svg>
