<?xml version="1.0" encoding="utf-8"?>
<!-- Generator: Adobe Illustrator 16.0.0, SVG Export Plug-In . SVG Version: 6.00 Build 0)  -->
<!DOCTYPE svg PUBLIC "-//W3C//DTD SVG 1.1//EN" "http://www.w3.org/Graphics/SVG/1.1/DTD/svg11.dtd">
<svg version="1.1" xmlns="http://www.w3.org/2000/svg" xmlns:xlink="http://www.w3.org/1999/xlink" x="0px" y="0px"
	 width="223.114px" height="304.875px" viewBox="0 0 223.114 304.875" enable-background="new 0 0 223.114 304.875"
	 xml:space="preserve">
<g id="back">
	<path opacity="0.75" fill="#FFFFFF" d="M57.625,305.875l-2.5-77c0,0-24-20.5-26-52.5c-4-26.5-9-43-9-44.5s2.5-3.75,2.5-3.75
		l-15.5-13.5c0,0,9.5-15,24.25-23.75c5.5-4.25,5.5-4.25,5.5-4.25c0.078,0.056-8.173-1.368,1.5-9.25c6.75-5.5,23-18,23-18l9-5.25
		l-3.25-4.75c0,0-2.5-3,0.25-5s24.25-14,24.25-14s3.75-5.5,7.75,0c1.5,3,1.5,3,1.5,3l7.5-3.5l-2.75-3.5l23.5-15.25
		c0,0,3.75-4.25,7.5,0c3.75,4.5,26.25,37.5,26.25,37.5l3.25,3.75l4.5-1.75c0,0,1.25-1.25,21,31c17.25,27.25,18.75,28.75,18.75,28.75
		s10.513,10.75,5.513,18.25c-6.25,8-42,62-42,62l-20.763,28.5l17.5,85.75L57.625,305.875z"/>
</g>
<g id="fist">
	<path fill="#FFFFFF" d="M57.625,304.875l-2.5-76c0,0-18.101-15.932-24.8-43.341c-0.078-0.384-2.612-14.159-4.906-30.159
		c-0.011-0.057-5.294-23.5-5.294-23.5l34.75,34.5c0,0,6.5-13.5,38-28.25c20.75-8.5,59.75-17.5,77-20.5c0,0-22-3.75-80,14.75
		c-22.75,10.75-34.5,24.681-34.5,24.681l-46.75-42.431l-2.5,3.5l-1.25,1.5l10.5,9c0,0,4.5,19.25,5.25,26.75
		c1.5,13,3.195,42.219,19,62.5c12.25,13.75,10.5,13,10.5,13l0.5,74H57.625z"/>
	<path fill="#FFFFFF" d="M170.625,304.875l-17.5-85.75l61.25-91.5c0,0,4.693-5.045-0.955-13s-42.795-64-42.795-64l-58.369,22.917
		c0,0-8.797,1.334-10.464,9.667c0-0.333,0,13.667,0,13.667s7,6.667,36,12.667c-0.667,0,17.333-20,17.333-20l-1.333,4.333
		c0,0-9.956,16.481,0.688,23.907c0.389-0.035-9.776,1.167-9.776,1.167s-6.246-3.408-40.579-12.074c-0.333,0.333-8.667-10-8.667-10
		V83.208c0,0-2-12,7.667-13.333c27-8,48-18,63-29.333c-0.666,1.333,6.334-3,6.334-3l39.666,63l7.667,10.667
		c3.793,5.922,6.333,10-3.904,22.667c-9.096,14.667-54.763,84.667-54.763,84.667l19,86.333H170.625z"/>
	<path fill="#FFFFFF" d="M133.792,125.533l-44,64.342L76.125,209.75c0,0-4,3.792,2.333,5.792c6.333-0.667,6.333-0.667,6.333-0.667
		l1.333,1.75l3.75,74.5c0,0,3.75-46.5,0.25-76.25c-0.75-0.5,22.131-3.25,22.131-3.25s-22.131-2.75-24.881-6.75
		c3.75-7,7.912-13.5,7.912-13.5s36.947-58.899,47.643-68.075c2.938-4.489,0-1.675,0-1.675L133.792,125.533z"/>
	<path fill="#FFFFFF" d="M144.235,126.625c0,0,12.64,11,22.89,14.75c3.5,2.25,2.75,3.5,2.75,3.5l3.75,5c0,0,4.25-0.5,8.5,0
		c4.5-2,6.25-3.75,6.25-3.75l-5.5-1l-3.5-1.5l-2-2.5l-2.75-1.75c0,0-1.5-2.5-2.25-2.5s-4.25-0.5-4.25-0.5l-3.5-2.25
		c0,0-2.85-3-5.425-6.5c0.175-0.75,0,3,0,3S153.598,132.635,144.235,126.625z"/>
	<path fill="#FFFFFF" d="M166.125,40.542l-28.25-38.417l-1.5-2l-9.75,5.75l-23.75,14.458l-3.25-3.708l-43,27.75l4.75,8L35.911,72.5
		L24.625,82.625c0,0,3.875,4.563,4.25,5s-2.502-0.502-28,27c6.718,7.33,4,5,4,5S19.494,98.115,30.56,91.37
		c15.315,18.755,41.565,53.505,41.565,53.505l8.25-6.625l-43.5-51.625l-3-4l29.21-24.248c0,0,28.213,46.777,43.998,68.845
		c5.792,0.902,9.292-0.598,9.292-0.598l0.735-2.061c0,0-29.985-38.439-46.735-70.439c-4.27-7.753-4.27-7.753-4.27-7.753
		l29.182-18.424c0,0,23.338,27.927,28.838,36.677c-0.25,0,4.25-1.75,4.25-1.75s-15.257-27.719-22.003-36.984
		c5.021-3.259,27.503-16.654,27.503-16.654s18.5,22.389,27.5,37.889c4.5-1.75,4.75-3.5,4.75-3.5V40.542z"/>
	<path fill="#FFFFFF" d="M20.743,130.291c1.632,0.584,7.634,35.027,10.632,51.834c5.5,17.25,7.25,27.25,25.75,45
		c-0.25,22.25,1.5,78.75,1.5,78.75l-5.5-3.5v-71.5l-2.75-4.25c0,0-16.5-14.75-19.75-31.75s-12.5-66.25-12.5-66.25L20.743,130.291z"
		/>
	<path fill="#FFFFFF" d="M0.875,114.625L0,115.813l0.875,0.813l14.866,13.588l1.384-3.588l-8.5-12c0,0,18.673-20.6,22.75-23.75
		c-1.984,1.246-3.5,0-3.5,0S4.375,114.625,0.875,114.625z"/>
	<path fill="#FFFFFF" d="M29.375,83.875c0,0-14.153,15.326-14.666,15.792s6.244-1.954,6.244-1.954l10.422-11.588"/>
	<polygon fill="#FFFFFF" points="27.636,86.169 28.699,87.418 27.31,88.809 29.75,88.809 30.188,86.875 	"/>
</g>
</svg>
