<?xml version="1.0" encoding="utf-8"?>
<svg version="1.1" xmlns="http://www.w3.org/2000/svg" preserveAspectRatio="none" viewBox="0 0 484 196" width="100%" height="100%">
	<g>
		<polygon id="M" fill="#FFFFFF" points="18,16.5 18,181.5 45.5,181.5 45.5,116.833 48.5,116.833 61.5,181.5 75,181.5 88.25,116.75 90.5,116.75 90.5,181.5 118.75,181.5 118.75,16.5 82.5,16.5 68.375,87.75 67.667,87.75 53.5,16.5 "/>
		<path id="A" fill="#FFFFFF" d="M177.333,16.5H142l-24.667,165H144l3-16.5h24.333l3,16.5h26.333L177.333,16.5z M151,135.5l8-53.5h1.5l9,53.5H151z"/>
		<path id="R" fill="#FFFFFF" d="M257,118.5c0,0,20.5-16,20.5-48s-20.334-51.5-37.167-54c-16.333,0-39.667,0-39.667,0v165H229.5V128h3.5l19,53.5h28L257,118.5z M247,71.5C246,94,228.5,96,228.5,96V47C249,55.5,247,71.5,247,71.5z"/>
		<polygon id="V" fill="#FFFFFF" points="298.333,16.5 267.833,16.5 294.667,181.5 326,181.5 351.5,16.5 324.334,16.5 311.167,105.667 309.667,105.667 "/>
		<polygon id="E" fill="#FFFFFF" points="406,16.5 350.5,16.5 350.5,181.5 406,181.5 406,147.5 380,148 380,116 406,116 406,85 379.667,84.667 379.667,52.667 406,52.667 "/>
		<polygon id="L" fill="#FFFFFF" points="442.667,16.5 413.667,16.5 413.667,181.5 467.667,181.5 467.667,148 442.667,148 "/>
	</g>
</svg>

