<?xml version="1.0" encoding="utf-8"?>
<!-- Generator: Adobe Illustrator 16.0.0, SVG Export Plug-In . SVG Version: 6.00 Build 0)  -->
<!DOCTYPE svg PUBLIC "-//W3C//DTD SVG 1.1//EN" "http://www.w3.org/Graphics/SVG/1.1/DTD/svg11.dtd">
<svg version="1.1" xmlns="http://www.w3.org/2000/svg" xmlns:xlink="http://www.w3.org/1999/xlink" x="0px" y="0px" width="170px"
	 height="170px" viewBox="0 0 170 170" enable-background="new 0 0 170 170" xml:space="preserve">
<g id="circle">
	<circle opacity="0.75" fill="#FFFFFF" cx="86" cy="86.828" r="80"/>
</g>
<g id="hwak">
	<g>
		<path fill="#FFFFFF" d="M102.983,82.636l27.264,54.942c4.131-3.51,7.835-7.503,11.028-11.895L115.678,75.02L102.983,82.636z"/>
		<path fill="#FFFFFF" d="M147.4,55.989l-10.423,6.253l16.681,32.351c0.377-2.896,0.592-5.844,0.592-8.843
			C154.25,75.075,151.784,64.979,147.4,55.989z"/>
		<path fill="#FFFFFF" d="M120.837,71.925l24.224,47.945c2.869-4.934,5.132-10.258,6.694-15.879l-19.933-38.656L120.837,71.925z"/>
		<path fill="#FFFFFF" d="M56.39,74.843l-25.47,50.412c3.168,4.429,6.852,8.46,10.969,12.008l27.156-54.724L56.39,74.843z"/>
		<path fill="#FFFFFF" d="M85.979,92.838L74.19,85.668l-27.483,55.384c11.144,7.982,24.79,12.697,39.543,12.697
			c14.584,0,28.085-4.607,39.158-12.424L97.821,85.733L85.979,92.838z"/>
		<path fill="#FFFFFF" d="M40.3,65.058L20.56,103.34c1.517,5.678,3.755,11.058,6.602,16.048l24.086-47.672L40.3,65.058z"/>
		<path fill="#FFFFFF" d="M25.168,55.854c-4.425,9.024-6.918,19.167-6.918,29.896c0,2.719,0.178,5.396,0.488,8.031l16.422-31.85
			L25.168,55.854z"/>
		<path fill="#FFFFFF" d="M144.533,50.712c-3.983-6.612-9.064-12.486-14.983-17.382L129,33.667L103.334,50
			c0,0-3.334-6-11.334-22.667c1-2.667,10,0.333,10,0.333L98,20H77l-9,30L45,34.333l-1.667-1l-0.227-0.137
			c-5.949,4.89-11.057,10.765-15.064,17.383L86,85.828L144.533,50.712z"/>
	</g>
</g>
<g id="loop">
	<g>
		<path fill="#FFFFFF" d="M86,166.989c-44.388,0-80.5-36.112-80.5-80.5s36.112-80.5,80.5-80.5s80.5,36.112,80.5,80.5
			S130.388,166.989,86,166.989z M86,10.989c-41.631,0-75.5,33.869-75.5,75.5s33.869,75.5,75.5,75.5s75.5-33.869,75.5-75.5
			S127.631,10.989,86,10.989z"/>
	</g>
</g>
</svg>
